<svg width="49" height="50" viewBox="0 0 49 50" fill="none" xmlns="http://www.w3.org/2000/svg">
<circle cx="24.6679" cy="25.0624" r="24.1293" fill="#BCD77E"/>
<path d="M32.2594 20.0881C31.9193 20.093 31.583 20.1599 31.267 20.2855C31.1762 19.6975 30.8662 19.165 30.3987 18.794C29.9312 18.4229 29.3404 18.2404 28.7437 18.2826C28.1471 18.3249 27.5884 18.5889 27.1785 19.0222C26.9806 18.6234 26.6756 18.2869 26.2973 18.0499C25.9189 17.813 25.482 17.6849 25.035 17.6798C24.5177 17.6674 24.0124 17.835 23.606 18.1536V10.5337C23.5048 9.75282 23.0263 9.07035 22.3244 8.70627C21.6226 8.34205 20.7861 8.34205 20.0843 8.70627C19.3824 9.07035 18.9039 9.75282 18.8028 10.5337V24.8654L16.9372 22.2991C16.4562 21.6682 15.7441 21.252 14.9559 21.1411C14.1678 21.0301 13.3676 21.2335 12.7295 21.7069C11.9748 22.2619 11.5323 23.1422 11.5386 24.0758C11.5403 24.71 11.7339 25.3291 12.0944 25.8525L18.4456 34.3804C19.1505 35.3159 19.7999 36.2914 20.3906 37.3021C21.4624 39.0788 21.8991 39.7499 24.3204 39.7499H29.8777C31.9816 39.7499 32.3387 38.1706 32.577 36.9862C32.8152 35.8017 32.8152 35.7623 33.1725 35.4069C34.6014 33.9066 34.6411 31.3798 34.6411 30.1954V22.457C34.6411 21.8288 34.3902 21.2263 33.9436 20.782C33.4969 20.3377 32.8911 20.0881 32.2594 20.0881Z" fill="white"/>
</svg>
