<svg width="81" height="81" viewBox="0 0 81 81" fill="none" xmlns="http://www.w3.org/2000/svg">
<path d="M0.445312 0.482422H40.4453C62.5367 0.482422 80.4453 18.391 80.4453 40.4824V40.4824C80.4453 62.5738 62.5367 80.4824 40.4453 80.4824V80.4824C18.3539 80.4824 0.445312 62.5738 0.445312 40.4824V0.482422Z" fill="url(#paint0_linear_429_13)"/>
<path d="M39.2326 42.341L51.5928 29.9808V35.0736C51.5928 35.5117 51.9479 35.8663 52.3856 35.8663C52.8232 35.8663 53.1783 35.5117 53.1783 35.0736V28.0668C53.1783 27.9643 53.1571 27.8676 53.1222 27.7778C53.1206 27.774 53.1201 27.7699 53.1184 27.7656C53.0381 27.5705 52.8822 27.4146 52.6871 27.3343C52.6828 27.3327 52.6787 27.3322 52.6749 27.3305C52.5851 27.2951 52.4879 27.2744 52.3859 27.2744L45.3787 27.2746C44.941 27.2746 44.586 27.6291 44.586 28.0673C44.586 28.5055 44.941 28.86 45.3787 28.86H50.4715L37.5109 41.8197L38.6789 47.6589L31.9725 54.3658C31.6628 54.6755 31.6628 55.1771 31.9725 55.4867C32.1273 55.6416 32.3303 55.7188 32.5331 55.7188C32.7361 55.7188 32.9389 55.6416 33.0937 55.4867L40.4004 48.1801L39.2326 42.341Z" fill="#01457A"/>
<path d="M56.4496 55.4867C65.1295 46.8065 65.1295 32.6833 56.4496 24.003C52.245 19.7984 46.6543 17.4824 40.7075 17.4824C34.7608 17.4824 29.1704 19.7983 24.9654 24.0025C20.761 28.2072 18.4453 33.7979 18.4453 39.7446C18.4453 45.6914 20.7612 51.2818 24.9654 55.4867C29.1701 59.6914 34.7608 62.0069 40.7075 62.0069C46.6543 62.0069 52.2447 59.691 56.4496 55.4867ZM26.0867 54.3658C22.1818 50.4603 20.0308 45.268 20.0308 39.745C20.0308 34.2219 22.1817 29.0296 26.0867 25.1241C29.9916 21.2186 35.1845 19.0682 40.7075 19.0682C46.2306 19.0682 51.4229 21.2191 55.3284 25.1241C63.3899 33.1861 63.3899 46.3043 55.3284 54.3658C51.4229 58.2713 46.2306 60.4217 40.7075 60.4217C35.1845 60.4217 29.9922 58.2714 26.0867 54.3658Z" fill="#01457A"/>
<defs>
<linearGradient id="paint0_linear_429_13" x1="0.445311" y1="32.9824" x2="80.4453" y2="32.9824" gradientUnits="userSpaceOnUse">
<stop stop-color="#FDD966"/>
<stop offset="0.685406" stop-color="#BCD77E"/>
</linearGradient>
</defs>
</svg>
