<svg width="81" height="81" viewBox="0 0 81 81" fill="none" xmlns="http://www.w3.org/2000/svg">
<path d="M0.287109 0.66748H40.2871C62.3785 0.66748 80.2871 18.5761 80.2871 40.6675V40.6675C80.2871 62.7589 62.3785 80.6675 40.2871 80.6675V80.6675C18.1957 80.6675 0.287109 62.7589 0.287109 40.6675V0.66748Z" fill="url(#paint0_linear_429_5)"/>
<path d="M53.0275 59.0117H26.6456C23.048 59.0117 20.1357 56.0994 20.1357 52.5019C20.1357 50.2748 22.7911 48.9043 23.6476 48.476L34.3546 43.765C35.2112 43.5937 35.5538 43.3367 35.5538 42.1375C34.6116 41.024 30.8427 36.3129 30.8427 32.2871C30.8427 26.1199 34.9542 21.1519 40.0935 21.1519C45.2329 21.1519 49.3444 26.1199 49.3444 32.2014C49.3444 36.2273 45.4042 41.024 44.462 42.1375C44.3763 43.4223 44.6333 43.5937 45.4042 43.8506L55.9398 47.5338C57.7386 48.2191 59.4517 50.6174 59.4517 52.4162C59.5374 56.0994 56.6251 59.0117 53.0275 59.0117ZM34.8685 45.4781L24.3329 50.1035C23.1337 50.7031 21.8489 51.6453 21.8489 52.5875C21.8489 55.2428 23.9903 57.3842 26.6456 57.3842H53.0275C55.6829 57.3842 57.8243 55.2428 57.8243 52.5875C57.8243 51.474 56.5394 49.7609 55.4259 49.3326L44.9759 45.5637C43.0058 44.8785 42.6632 43.5937 42.8345 41.7949V41.5379L43.0058 41.3666C43.0915 41.281 47.6312 36.1416 47.6312 32.3728C47.6312 27.3191 44.205 23.0363 40.0935 23.0363C35.9821 23.0363 32.5558 27.3191 32.5558 32.4584C32.5558 36.2273 37.0099 41.3666 37.0099 41.3666L37.1812 41.6236V41.8805C37.3525 43.9363 36.6673 44.9642 34.8685 45.4781Z" fill="#01457A"/>
<defs>
<linearGradient id="paint0_linear_429_5" x1="0.287108" y1="33.1675" x2="80.2871" y2="33.1675" gradientUnits="userSpaceOnUse">
<stop stop-color="#FDD966"/>
<stop offset="0.685406" stop-color="#BCD77E"/>
</linearGradient>
</defs>
</svg>
