<svg width="103" height="134" viewBox="0 0 103 134" fill="none" xmlns="http://www.w3.org/2000/svg">
<g clip-path="url(#clip0_448_157)">
<mask id="mask0_448_157" style="mask-type:luminance" maskUnits="userSpaceOnUse" x="0" y="0" width="103" height="134">
<path d="M103 0H0V134H103V0Z" fill="white"/>
</mask>
<g mask="url(#mask0_448_157)">
<path fill-rule="evenodd" clip-rule="evenodd" d="M64.0846 50.8276C75.8875 50.8276 83.4251 39.4099 84.3381 30.2932C90.8365 28.7499 97.04 15.0774 91.478 16.3019C88.8374 16.8563 87.2691 14.5136 84.7081 10.3042C81.9084 5.71584 78.425 0 71.4865 0C67.1839 0 64.8151 1.08123 63.64 1.88985C61.8843 1.57564 58.0452 1.32153 54.7164 4.0847C51.3361 6.88946 49.543 11.8982 49.3276 18.9355C48.4053 19.6379 47.6654 20.8947 47.2253 22.5766C46.3826 25.7741 46.7384 30.0622 49.3087 32.5435C49.6131 39.4099 52.9559 50.8276 64.0846 50.8276ZM64.0846 46.7614C53.1619 46.7614 52.9887 32.1323 52.9887 31.5131C52.984 30.8154 52.6563 30.1639 52.1226 29.7942C50.0766 28.3803 50.1842 23.815 51.3453 22.3688C55.0065 22.4797 54.0561 24.8963 56.1863 24.3418C59.5385 23.4639 62.254 21.1582 63.8786 19.467C66.3506 22.9464 72.0624 29.4846 80.5927 30.3949C79.6657 37.0857 74.1505 46.7614 64.0846 46.7614ZM56.9121 7.35619C59.8149 4.9257 63.5463 6.01618 63.5791 6.0208C65.4144 6.59839 64.9694 4.06623 71.4865 4.06623C76.4492 4.06623 78.968 8.19714 81.632 12.5729C83.5983 15.7936 85.7801 19.3376 89.0808 20.234C87.9056 22.817 85.7099 26.4303 82.5824 26.4303C72.0062 26.4303 65.728 15.3222 65.6671 15.2113C64.9836 13.9775 63.4151 13.9268 62.6332 14.9988C62.6052 15.0404 59.9554 18.6537 56.2989 20.0722C55.6154 19.4669 54.5525 18.8108 53.0356 18.4966C53.2697 13.0765 54.5665 9.3246 56.9121 7.35619Z" fill="#01457A"/>
<path fill-rule="evenodd" clip-rule="evenodd" d="M98.6556 59.5979C96.282 55.2961 85.1485 47.2791 83.4443 46.4243C82.433 45.9206 81.2017 46.3226 80.6913 47.3207C80.181 48.3188 80.5836 49.5386 81.5949 50.0422C83.2195 50.8601 93.3416 58.4288 95.0551 61.5385C96.16 63.5532 97.7942 79.0279 98.8008 93.4121C95.5984 94.2716 87.8732 95.9119 81.7915 93.8649C84.8113 86.6936 87.2133 80.8669 88.6319 72.9332C88.8285 71.8335 88.0839 70.7753 86.9697 70.5812C85.8367 70.3872 84.7925 71.1219 84.5959 72.2263C83.2148 79.9428 80.7804 85.7279 78.2007 91.8549C76.5386 95.7964 74.8579 99.8025 73.4674 104.363C73.4628 104.377 73.458 104.386 73.458 104.395C71.5712 110.592 70.2275 117.819 70.2275 127.351C70.2275 128.469 71.1451 129.38 72.2781 129.38C73.4111 129.38 74.3241 128.469 74.3241 127.351C74.3241 123.992 74.5022 120.961 74.8065 118.16C75.5883 123.497 76.356 127.457 76.4121 127.735C76.5994 128.705 77.4564 129.38 78.4161 129.38C78.5472 129.38 78.6783 129.366 78.8093 129.343C79.9189 129.13 80.6447 128.067 80.4293 126.968C80.4059 126.852 78.2053 115.518 77.4703 105.25C78.299 102.575 79.2447 100.07 80.2373 97.6076C82.934 98.5549 85.8226 98.9199 88.5942 98.9199C95.3032 98.9199 101.244 96.9377 101.614 96.8129C102.49 96.5172 103.057 95.6716 102.996 94.7613C102.654 89.5769 100.814 63.5255 98.6556 59.5979Z" fill="#01457A"/>
<path fill-rule="evenodd" clip-rule="evenodd" d="M74.9089 76.1492C74.9089 73.0949 72.5633 70.0083 67.315 70.0083C61.0741 70.0083 41.949 79.0464 30.8063 84.5912C31.1106 83.6994 31.3773 82.8862 31.5787 82.2439C33.1845 81.9389 32.6227 81.2457 40.4928 66.9308C41.7429 64.5789 38.4423 62.5413 37.1969 64.8978L30.1462 78.21C21.8781 78.0713 15.1127 72.0599 12.7157 69.634C17.0651 61.0765 28.1891 42.6122 37.1969 41.3276C42.684 40.5467 45.8723 41.7204 45.9144 41.7388C46.8976 42.1131 47.979 41.5726 48.3348 40.5191C48.6953 39.4563 48.1945 38.278 47.2066 37.8899C47.0474 37.8252 43.199 36.342 36.696 37.2707C23.3013 39.1791 9.28384 67.8412 8.69393 69.0611C8.32407 69.8189 8.43185 70.7476 8.97026 71.3806C9.3214 71.8011 16.9246 80.6914 27.6038 82.1053C27.0935 83.6394 26.396 85.6169 25.6844 87.1695C24.3173 87.8672 23.32 88.3848 22.8331 88.6389C21.8921 89.1287 21.4942 90.3531 21.953 91.3697C22.4071 92.3862 23.5352 92.816 24.4856 92.3216C34.2145 87.2573 60.8634 74.1021 67.315 74.1021C69.0706 74.1021 71.1121 74.6382 71.1121 76.1492C71.1121 87.6455 24.6309 107.246 17.9687 107.246C13.2635 107.246 8.47847 100.759 8.47847 97.1363C8.47847 93.1995 10.5526 86.7999 11.7932 82.9739C11.8026 82.7614 13.2214 80.0351 10.9928 79.2034C8.77365 78.3809 8.34278 81.4214 8.20701 81.6247C6.89142 85.6909 4.68164 92.5018 4.68164 97.1363C4.68164 103.042 10.9085 110.883 17.4349 111.299C16.934 115.166 16.0679 122.532 16.0679 127.333C16.0679 128.465 16.92 129.38 17.9687 129.38C19.0174 129.38 19.8647 128.465 19.8647 127.333C19.8647 122.319 20.9089 113.979 21.3443 110.726C34.5096 107.311 74.9089 90.0251 74.9089 76.1492Z" fill="#01457A"/>
<path fill-rule="evenodd" clip-rule="evenodd" d="M96.1218 116.386V103.651C96.1218 102.552 95.5693 101.655 94.8811 101.655C94.1928 101.655 93.6357 102.552 93.6357 103.651V116.386C93.6357 121.196 95.8595 128.021 95.9578 128.307C96.7209 130.632 98.931 128.793 98.1538 126.441C97.592 124.722 96.1218 119.565 96.1218 116.386Z" fill="#01457A"/>
<path fill-rule="evenodd" clip-rule="evenodd" d="M59.4309 68.9363C61.6548 67.4854 64.8199 67.0141 67.6898 67.7026C68.6964 67.9475 69.7827 67.5685 70.1245 66.8616C70.4662 66.1546 69.9325 65.3876 68.9306 65.1473C64.7216 64.1354 60.0911 64.8284 56.8325 66.9539C54.9411 68.1877 57.6003 70.1284 59.4309 68.9363Z" fill="#01457A"/>
<path fill-rule="evenodd" clip-rule="evenodd" d="M67.8158 92.9269C66.6688 94.4194 64.5246 95.0479 62.6191 94.4518C61.9261 94.2346 61.1723 94.5627 60.9382 95.1818C60.6948 95.7964 61.0647 96.4711 61.7529 96.6836C62.5161 96.9193 63.3072 97.0347 64.0844 97.0347C66.3972 97.0347 68.6353 96.032 69.993 94.2623C70.4097 93.7217 70.2551 92.987 69.6558 92.6174C69.0518 92.2524 68.2278 92.3909 67.8158 92.9269Z" fill="#01457A"/>
<path fill-rule="evenodd" clip-rule="evenodd" d="M74.408 97.7876C73.687 96.8542 72.4556 96.7757 71.6551 97.6213C66.8562 102.649 59.8382 103.106 54.5852 98.7349C53.7097 98.0094 52.4924 98.2451 51.8651 99.2662C51.2377 100.283 51.4391 101.701 52.3146 102.431C55.4092 105.005 58.9815 106.276 62.5303 106.276C66.7346 106.276 70.92 104.497 74.2629 100.994C75.0635 100.158 75.129 98.721 74.408 97.7876Z" fill="#01457A"/>
<path fill-rule="evenodd" clip-rule="evenodd" d="M60.8588 57.3937C60.7839 56.2293 59.9784 55.3561 59.0888 55.4578C53.8686 56.0122 49.2338 60.1616 46.9959 66.284C46.0642 68.8346 49.0372 70.6135 49.9595 68.0906C51.7011 63.3313 55.3014 60.1061 59.3606 59.6718C60.2595 59.5794 60.929 58.5581 60.8588 57.3937Z" fill="#01457A"/>
</g>
</g>
<defs>
<clipPath id="clip0_448_157">
<rect width="103" height="134" fill="white"/>
</clipPath>
</defs>
</svg>
