<svg width="50" height="50" viewBox="0 0 50 50" fill="none" xmlns="http://www.w3.org/2000/svg">
<circle cx="25.0888" cy="24.9662" r="24.1293" fill="#01457A"/>
<path d="M33.6803 21.7771C33.3402 21.7813 33.0039 21.8384 32.6879 21.9455C32.5971 21.444 32.2871 20.9899 31.8196 20.6734C31.3521 20.3569 30.7613 20.2012 30.1646 20.2373C29.568 20.2734 29.0093 20.4985 28.5994 20.868C28.4015 20.5279 28.0965 20.2409 27.7182 20.0388C27.3398 19.8368 26.9029 19.7275 26.4559 19.7231C25.9386 19.7126 25.4333 19.8555 25.0269 20.1272V13.6284C24.9257 12.9625 24.4472 12.3804 23.7453 12.0699C23.0435 11.7593 22.207 11.7593 21.5052 12.0699C20.8033 12.3804 20.3248 12.9625 20.2237 13.6284V25.8516L18.3581 23.6629C17.8771 23.1248 17.165 22.7697 16.3768 22.6752C15.5887 22.5806 14.7885 22.754 14.1504 23.1578C13.3957 23.6311 12.9532 24.3819 12.9595 25.1781C12.9612 25.719 13.1548 26.2471 13.5153 26.6934L19.8665 33.9666C20.5714 34.7645 21.2208 35.5965 21.8115 36.4584C22.8833 37.9737 23.32 38.5461 25.7413 38.5461H31.2986C33.4025 38.5461 33.7596 37.1992 33.9979 36.189C34.2361 35.1788 34.2361 35.1452 34.5934 34.8421C36.0223 33.5625 36.062 31.4075 36.062 30.3973V23.7975C36.062 23.2617 35.8111 22.7479 35.3645 22.369C34.9178 21.99 34.312 21.7771 33.6803 21.7771Z" fill="white"/>
</svg>
