<svg width="1291" height="390" viewBox="0 0 1291 390" fill="none" xmlns="http://www.w3.org/2000/svg">
<rect width="1290" height="389" transform="translate(0.948242 0.337891)" fill="white"/>
<line x1="149.948" y1="15.8379" x2="1211.95" y2="15.8379" stroke="#CECECE"/>
<line x1="149.948" y1="71.8379" x2="1211.95" y2="71.8379" stroke="#CECECE"/>
<line x1="149.948" y1="127.838" x2="1211.95" y2="127.838" stroke="#CECECE"/>
<line x1="149.948" y1="183.838" x2="1211.95" y2="183.838" stroke="#CECECE"/>
<line x1="149.948" y1="239.838" x2="1211.95" y2="239.838" stroke="#CECECE"/>
<line x1="149.948" y1="295.838" x2="1211.95" y2="295.838" stroke="#CECECE"/>
<line x1="149.948" y1="353.838" x2="1211.95" y2="353.838" stroke="#CECECE"/>
<path d="M8.50824 368.5C8.50824 369.126 8.57491 369.733 8.70824 370.32C8.84157 370.906 9.02157 371.453 9.24824 371.96L8.24824 372.42C8.00824 371.873 7.82157 371.26 7.68824 370.58C7.54157 369.9 7.46824 369.2 7.46824 368.48C7.46824 367.013 7.76157 365.793 8.34824 364.82C8.93491 363.846 9.76824 363.12 10.8482 362.64C11.9149 362.16 13.1749 361.92 14.6282 361.92C16.1482 361.92 17.4749 362.18 18.6082 362.7C19.7282 363.22 20.6016 363.986 21.2282 365C21.8416 366 22.1482 367.24 22.1482 368.72C22.1482 369.533 22.0949 370.233 21.9882 370.82C21.8949 371.406 21.7549 371.953 21.5682 372.46L20.5282 372.46C20.6882 371.94 20.8282 371.386 20.9482 370.8C21.0549 370.213 21.1082 369.566 21.1082 368.86C21.1082 367.02 20.5682 365.62 19.4882 364.66C18.3949 363.686 16.9082 363.18 15.0282 363.14L15.0282 370.62L13.9882 370.62L13.9882 363.14C12.2816 363.233 10.9416 363.733 9.96824 364.64C8.99491 365.546 8.50824 366.833 8.50824 368.5ZM11.3082 350.338L21.9482 350.338L21.9482 351.478L12.3082 351.478L12.3082 357.778L21.9482 357.778L21.9482 358.918L11.3082 358.918L11.3082 350.338ZM18.7082 345.689C19.0016 345.689 19.3349 345.702 19.7082 345.729C20.0816 345.742 20.4149 345.755 20.7082 345.769L11.3082 339.549L11.3082 338.149L21.9482 338.149L21.9482 339.229L14.5282 339.229C14.2349 339.229 13.9016 339.229 13.5282 339.229C13.1416 339.215 12.8082 339.195 12.5282 339.169L21.9482 345.409L21.9482 346.789L11.3082 346.789L11.3082 345.689L18.7082 345.689ZM11.3082 327.201L20.9482 327.201L20.9482 325.761L25.5682 325.761L25.5682 326.861L21.9482 326.861L21.9482 334.861L25.5682 334.861L25.5682 335.961L20.9482 335.961L20.9482 335.221C19.7082 334.328 18.2616 333.648 16.6082 333.181C14.9549 332.715 13.1882 332.468 11.3082 332.441L11.3082 327.201ZM12.2482 331.421C13.9282 331.501 15.5216 331.761 17.0282 332.201C18.5216 332.628 19.8282 333.221 20.9482 333.981L20.9482 328.321L12.2482 328.321L12.2482 331.421ZM11.1082 319.507C11.1082 318.6 11.3216 317.847 11.7482 317.247C12.1616 316.633 12.7349 316.173 13.4682 315.867C14.2016 315.547 15.0416 315.387 15.9882 315.387L16.7682 315.387L16.7682 322.987C18.1816 322.987 19.2682 322.66 20.0282 322.007C20.7749 321.34 21.1482 320.393 21.1482 319.167C21.1482 318.513 21.0949 317.94 20.9882 317.447C20.8682 316.953 20.6816 316.413 20.4282 315.827L21.4682 315.827C21.7082 316.36 21.8816 316.887 21.9882 317.407C22.0949 317.927 22.1482 318.527 22.1482 319.207C22.1482 320.807 21.6616 322.033 20.6882 322.887C19.7149 323.74 18.3882 324.167 16.7082 324.167C15.6282 324.167 14.6682 323.987 13.8282 323.627C12.9882 323.253 12.3282 322.72 11.8482 322.027C11.3549 321.333 11.1082 320.493 11.1082 319.507ZM12.0682 319.527C12.0682 320.5 12.3949 321.293 13.0482 321.907C13.7016 322.507 14.6282 322.853 15.8282 322.947L15.8282 316.567C14.7082 316.567 13.8016 316.813 13.1082 317.307C12.4149 317.787 12.0682 318.527 12.0682 319.527ZM11.3082 301.951L21.9482 301.951L21.9482 302.991L14.4682 302.991C13.9482 302.991 13.3882 302.971 12.7882 302.931L12.7882 302.991L21.9482 306.771L21.9482 307.751L12.7682 311.491L12.7682 311.531C13.0749 311.518 13.3682 311.511 13.6482 311.511C13.9149 311.498 14.2082 311.491 14.5282 311.491L21.9482 311.491L21.9482 312.551L11.3082 312.551L11.3082 310.991L20.5282 307.251L11.3082 303.471L11.3082 301.951ZM18.7082 297.622C19.0016 297.622 19.3349 297.636 19.7082 297.662C20.0816 297.676 20.4149 297.689 20.7082 297.702L11.3082 291.482L11.3082 290.082L21.9482 290.082L21.9482 291.162L14.5282 291.162C14.2349 291.162 13.9016 291.162 13.5282 291.162C13.1416 291.149 12.8082 291.129 12.5282 291.102L21.9482 297.342L21.9482 298.722L11.3082 298.722L11.3082 297.622L18.7082 297.622ZM16.6082 277.635C17.7282 277.635 18.7016 277.822 19.5282 278.195C20.3549 278.555 21.0016 279.095 21.4682 279.815C21.9216 280.522 22.1482 281.388 22.1482 282.415C22.1482 283.402 21.9216 284.248 21.4682 284.955C21.0149 285.662 20.3749 286.208 19.5482 286.595C18.7082 286.968 17.7282 287.155 16.6082 287.155C14.8882 287.155 13.5416 286.728 12.5682 285.875C11.5949 285.022 11.1082 283.842 11.1082 282.335C11.1082 281.322 11.3416 280.468 11.8082 279.775C12.2616 279.068 12.9016 278.535 13.7282 278.175C14.5549 277.815 15.5149 277.635 16.6082 277.635ZM16.6082 285.975C17.9816 285.975 19.0882 285.688 19.9282 285.115C20.7549 284.528 21.1682 283.622 21.1682 282.395C21.1682 281.155 20.7482 280.248 19.9082 279.675C19.0682 279.102 17.9682 278.815 16.6082 278.815C15.7282 278.815 14.9482 278.935 14.2682 279.175C13.5882 279.415 13.0549 279.795 12.6682 280.315C12.2816 280.835 12.0882 281.515 12.0882 282.355C12.0882 283.555 12.4882 284.462 13.2882 285.075C14.0882 285.675 15.1949 285.975 16.6082 285.975ZM21.9482 267.218L21.9482 268.378L12.2882 268.378L12.2882 271.978C14.5282 272.138 16.3682 272.351 17.8082 272.618C19.2482 272.885 20.3149 273.258 21.0082 273.738C21.7016 274.205 22.0482 274.825 22.0482 275.598C22.0482 275.931 22.0149 276.191 21.9482 276.378L21.0482 276.378C21.0882 276.245 21.1082 276.045 21.1082 275.778C21.1082 274.965 20.3149 274.351 18.7282 273.938C17.1416 273.525 14.6682 273.205 11.3082 272.978L11.3082 267.218L21.9482 267.218ZM16.6082 254.803C17.7282 254.803 18.7016 254.99 19.5282 255.363C20.3549 255.723 21.0016 256.263 21.4682 256.983C21.9216 257.69 22.1482 258.556 22.1482 259.583C22.1482 260.57 21.9216 261.416 21.4682 262.123C21.0149 262.83 20.3749 263.376 19.5482 263.763C18.7082 264.136 17.7282 264.323 16.6082 264.323C14.8882 264.323 13.5416 263.896 12.5682 263.043C11.5949 262.19 11.1082 261.01 11.1082 259.503C11.1082 258.49 11.3416 257.636 11.8082 256.943C12.2616 256.236 12.9016 255.703 13.7282 255.343C14.5549 254.983 15.5149 254.803 16.6082 254.803ZM16.6082 263.143C17.9816 263.143 19.0882 262.856 19.9282 262.283C20.7549 261.696 21.1682 260.79 21.1682 259.563C21.1682 258.323 20.7482 257.416 19.9082 256.843C19.0682 256.27 17.9682 255.983 16.6082 255.983C15.7282 255.983 14.9482 256.103 14.2682 256.343C13.5882 256.583 13.0549 256.963 12.6682 257.483C12.2816 258.003 12.0882 258.683 12.0882 259.523C12.0882 260.723 12.4882 261.63 13.2882 262.243C14.0882 262.843 15.1949 263.143 16.6082 263.143ZM11.3082 245.606L12.2882 245.606L12.2882 250.766L21.9482 250.766L21.9482 251.906L11.3082 251.906L11.3082 245.606ZM18.7082 242.329C19.0016 242.329 19.3349 242.343 19.7082 242.369C20.0816 242.383 20.4149 242.396 20.7082 242.409L11.3082 236.189L11.3082 234.789L21.9482 234.789L21.9482 235.869L14.5282 235.869C14.2349 235.869 13.9016 235.869 13.5282 235.869C13.1416 235.856 12.8082 235.836 12.5282 235.809L21.9482 242.049L21.9482 243.429L11.3082 243.429L11.3082 242.329L18.7082 242.329ZM14.9282 230.282C15.7816 230.282 16.4016 230.069 16.7882 229.642C17.1616 229.215 17.3482 228.595 17.3482 227.782C17.3482 227.062 17.2416 226.415 17.0282 225.842C16.8016 225.269 16.4949 224.709 16.1082 224.162L11.3082 224.162L11.3082 223.022L21.9482 223.022L21.9482 224.162L17.0682 224.162C17.4682 224.749 17.7816 225.335 18.0082 225.922C18.2216 226.509 18.3282 227.195 18.3282 227.982C18.3282 229.102 18.0416 229.955 17.4682 230.542C16.8816 231.129 16.0749 231.422 15.0482 231.422L11.3082 231.422L11.3082 230.282L14.9282 230.282ZM11.1082 215.464C11.1082 214.557 11.3216 213.804 11.7482 213.204C12.1616 212.59 12.7349 212.13 13.4682 211.824C14.2016 211.504 15.0416 211.344 15.9882 211.344L16.7682 211.344L16.7682 218.944C18.1816 218.944 19.2682 218.617 20.0282 217.964C20.7749 217.297 21.1482 216.35 21.1482 215.124C21.1482 214.47 21.0949 213.897 20.9882 213.404C20.8682 212.91 20.6816 212.37 20.4282 211.784L21.4682 211.784C21.7082 212.317 21.8816 212.844 21.9882 213.364C22.0949 213.884 22.1482 214.484 22.1482 215.164C22.1482 216.764 21.6616 217.99 20.6882 218.844C19.7149 219.697 18.3882 220.124 16.7082 220.124C15.6282 220.124 14.6682 219.944 13.8282 219.584C12.9882 219.21 12.3282 218.677 11.8482 217.984C11.3549 217.29 11.1082 216.45 11.1082 215.464ZM12.0682 215.484C12.0682 216.457 12.3949 217.25 13.0482 217.864C13.7016 218.464 14.6282 218.81 15.8282 218.904L15.8282 212.524C14.7082 212.524 13.8016 212.77 13.1082 213.264C12.4149 213.744 12.0682 214.484 12.0682 215.484ZM22.1482 204.209C22.1482 205.769 21.6682 206.975 20.7082 207.829C19.7482 208.669 18.4082 209.089 16.6882 209.089C15.4882 209.089 14.4749 208.875 13.6482 208.449C12.8216 208.022 12.1949 207.429 11.7682 206.669C11.3282 205.895 11.1082 204.995 11.1082 203.969C11.1082 203.462 11.1549 202.982 11.2482 202.529C11.3416 202.075 11.4682 201.675 11.6282 201.329L12.6082 201.649C12.4616 202.009 12.3482 202.395 12.2682 202.809C12.1749 203.222 12.1282 203.615 12.1282 203.989C12.1282 205.255 12.5349 206.229 13.3482 206.909C14.1616 207.575 15.2682 207.909 16.6682 207.909C18.0016 207.909 19.0816 207.609 19.9082 207.009C20.7216 206.409 21.1282 205.475 21.1282 204.209C21.1282 203.689 21.0749 203.195 20.9682 202.729C20.8616 202.262 20.7282 201.842 20.5682 201.469L21.5882 201.469C21.7616 201.815 21.8949 202.215 21.9882 202.669C22.0949 203.109 22.1482 203.622 22.1482 204.209ZM11.3082 193.057L11.3082 191.757L16.4682 196.517L21.9482 191.457L21.9482 192.837L16.5482 197.817L21.9482 197.817L21.9482 198.957L11.3082 198.957L11.3082 197.817L16.4682 197.817L11.3082 193.057ZM16.6082 180.994C17.7282 180.994 18.7016 181.181 19.5282 181.554C20.3549 181.914 21.0016 182.454 21.4682 183.174C21.9216 183.881 22.1482 184.748 22.1482 185.774C22.1482 186.761 21.9216 187.608 21.4682 188.314C21.0149 189.021 20.3749 189.568 19.5482 189.954C18.7082 190.328 17.7282 190.514 16.6082 190.514C14.8882 190.514 13.5416 190.088 12.5682 189.234C11.5949 188.381 11.1082 187.201 11.1082 185.694C11.1082 184.681 11.3416 183.828 11.8082 183.134C12.2616 182.428 12.9016 181.894 13.7282 181.534C14.5549 181.174 15.5149 180.994 16.6082 180.994ZM16.6082 189.334C17.9816 189.334 19.0882 189.048 19.9282 188.474C20.7549 187.888 21.1682 186.981 21.1682 185.754C21.1682 184.514 20.7482 183.608 19.9082 183.034C19.0682 182.461 17.9682 182.174 16.6082 182.174C15.7282 182.174 14.9482 182.294 14.2682 182.534C13.5882 182.774 13.0549 183.154 12.6682 183.674C12.2816 184.194 12.0882 184.874 12.0882 185.714C12.0882 186.914 12.4882 187.821 13.2882 188.434C14.0882 189.034 15.1949 189.334 16.6082 189.334ZM11.1082 174.057C11.1082 173.151 11.3216 172.397 11.7482 171.797C12.1616 171.184 12.7349 170.724 13.4682 170.417C14.2016 170.097 15.0416 169.937 15.9882 169.937L16.7682 169.937L16.7682 177.537C18.1816 177.537 19.2682 177.211 20.0282 176.557C20.7749 175.891 21.1482 174.944 21.1482 173.717C21.1482 173.064 21.0949 172.491 20.9882 171.997C20.8682 171.504 20.6816 170.964 20.4282 170.377L21.4682 170.377C21.7082 170.911 21.8816 171.437 21.9882 171.957C22.0949 172.477 22.1482 173.077 22.1482 173.757C22.1482 175.357 21.6616 176.584 20.6882 177.437C19.7149 178.291 18.3882 178.717 16.7082 178.717C15.6282 178.717 14.6682 178.537 13.8282 178.177C12.9882 177.804 12.3282 177.271 11.8482 176.577C11.3549 175.884 11.1082 175.044 11.1082 174.057ZM12.0682 174.077C12.0682 175.051 12.3949 175.844 13.0482 176.457C13.7016 177.057 14.6282 177.404 15.8282 177.497L15.8282 171.117C14.7082 171.117 13.8016 171.364 13.1082 171.857C12.4149 172.337 12.0682 173.077 12.0682 174.077ZM11.1082 157.087C11.1082 155.727 11.5682 154.667 12.4882 153.907C13.4082 153.147 14.7682 152.767 16.5682 152.767C18.3682 152.767 19.7482 153.167 20.7082 153.967C21.6682 154.754 22.1482 155.834 22.1482 157.207C22.1482 158.14 21.9482 158.894 21.5482 159.467C21.1482 160.04 20.6682 160.46 20.1082 160.727L20.1082 160.807C20.4416 160.78 20.8082 160.76 21.2082 160.747C21.5949 160.734 21.9549 160.727 22.2882 160.727L26.6682 160.727L26.6682 161.867L11.3082 161.867L11.3082 160.927L13.2882 160.787L13.2882 160.727C12.7149 160.46 12.2082 160.034 11.7682 159.447C11.3282 158.86 11.1082 158.074 11.1082 157.087ZM12.0882 157.247C12.0882 158.434 12.4616 159.307 13.2082 159.867C13.9549 160.427 15.0282 160.714 16.4282 160.727L16.6282 160.727C18.1482 160.727 19.2882 160.454 20.0482 159.907C20.7949 159.347 21.1682 158.487 21.1682 157.327C21.1682 156.234 20.7616 155.4 19.9482 154.827C19.1216 154.24 17.9882 153.947 16.5482 153.947C15.1216 153.947 14.0216 154.227 13.2482 154.787C12.4749 155.334 12.0882 156.154 12.0882 157.247ZM11.1282 146.134C11.1282 144.934 11.4216 144.041 12.0082 143.454C12.5949 142.868 13.5216 142.574 14.7882 142.574L21.9482 142.574L21.9482 143.434L20.1482 143.634L20.1482 143.694C20.7482 144.081 21.2349 144.554 21.6082 145.114C21.9682 145.661 22.1482 146.428 22.1482 147.414C22.1482 148.441 21.8949 149.248 21.3882 149.834C20.8682 150.421 20.1282 150.714 19.1682 150.714C18.1016 150.714 17.2949 150.281 16.7482 149.414C16.1882 148.548 15.8749 147.288 15.8082 145.634L15.7082 143.694L14.9682 143.694C13.9282 143.694 13.1882 143.908 12.7482 144.334C12.3082 144.748 12.0882 145.361 12.0882 146.174C12.0882 146.721 12.1616 147.248 12.3082 147.754C12.4549 148.261 12.6482 148.768 12.8882 149.274L11.9682 149.634C11.7282 149.128 11.5282 148.581 11.3682 147.994C11.2082 147.394 11.1282 146.774 11.1282 146.134ZM16.6482 145.494C16.7149 146.854 16.9549 147.868 17.3682 148.534C17.7682 149.188 18.3682 149.514 19.1682 149.514C19.8349 149.514 20.3416 149.314 20.6882 148.914C21.0216 148.501 21.1882 147.934 21.1882 147.214C21.1882 146.108 20.8749 145.248 20.2482 144.634C19.6082 144.021 18.7282 143.708 17.6082 143.694L16.5682 143.694L16.6482 145.494ZM22.1482 134.912C22.1482 136.472 21.6682 137.678 20.7082 138.532C19.7482 139.372 18.4082 139.792 16.6882 139.792C15.4882 139.792 14.4749 139.578 13.6482 139.152C12.8216 138.725 12.1949 138.132 11.7682 137.372C11.3282 136.598 11.1082 135.698 11.1082 134.672C11.1082 134.165 11.1549 133.685 11.2482 133.232C11.3416 132.778 11.4682 132.378 11.6282 132.032L12.6082 132.352C12.4616 132.712 12.3482 133.098 12.2682 133.512C12.1749 133.925 12.1282 134.318 12.1282 134.692C12.1282 135.958 12.5349 136.932 13.3482 137.612C14.1616 138.278 15.2682 138.612 16.6682 138.612C18.0016 138.612 19.0816 138.312 19.9082 137.712C20.7216 137.112 21.1282 136.178 21.1282 134.912C21.1282 134.392 21.0749 133.898 20.9682 133.432C20.8616 132.965 20.7282 132.545 20.5682 132.172L21.5882 132.172C21.7616 132.518 21.8949 132.918 21.9882 133.372C22.0949 133.812 22.1482 134.325 22.1482 134.912ZM11.3082 121.08L21.9482 121.08L21.9482 122.22L12.3082 122.22L12.3082 128.52L21.9482 128.52L21.9482 129.66L11.3082 129.66L11.3082 121.08ZM11.1082 112.751C11.1082 111.391 11.5682 110.331 12.4882 109.571C13.4082 108.811 14.7682 108.431 16.5682 108.431C18.3682 108.431 19.7482 108.831 20.7082 109.631C21.6682 110.418 22.1482 111.498 22.1482 112.871C22.1482 113.804 21.9482 114.558 21.5482 115.131C21.1482 115.704 20.6682 116.124 20.1082 116.391L20.1082 116.471C20.4416 116.444 20.8082 116.424 21.2082 116.411C21.5949 116.398 21.9549 116.391 22.2882 116.391L26.6682 116.391L26.6682 117.531L11.3082 117.531L11.3082 116.591L13.2882 116.451L13.2882 116.391C12.7149 116.124 12.2082 115.698 11.7682 115.111C11.3282 114.524 11.1082 113.738 11.1082 112.751ZM12.0882 112.911C12.0882 114.098 12.4616 114.971 13.2082 115.531C13.9549 116.091 15.0282 116.378 16.4282 116.391L16.6282 116.391C18.1482 116.391 19.2882 116.118 20.0482 115.571C20.7949 115.011 21.1682 114.151 21.1682 112.991C21.1682 111.898 20.7616 111.064 19.9482 110.491C19.1216 109.904 17.9882 109.611 16.5482 109.611C15.1216 109.611 14.0216 109.891 13.2482 110.451C12.4749 110.998 12.0882 111.818 12.0882 112.911ZM11.1082 101.518C11.1082 100.612 11.3216 99.8584 11.7482 99.2584C12.1616 98.645 12.7349 98.185 13.4682 97.8784C14.2016 97.5584 15.0416 97.3984 15.9882 97.3984L16.7682 97.3984L16.7682 104.998C18.1816 104.998 19.2682 104.672 20.0282 104.018C20.7749 103.352 21.1482 102.405 21.1482 101.178C21.1482 100.525 21.0949 99.9517 20.9882 99.4584C20.8682 98.965 20.6816 98.425 20.4282 97.8384L21.4682 97.8384C21.7082 98.3717 21.8816 98.8984 21.9882 99.4184C22.0949 99.9384 22.1482 100.538 22.1482 101.218C22.1482 102.818 21.6616 104.045 20.6882 104.898C19.7149 105.752 18.3882 106.178 16.7082 106.178C15.6282 106.178 14.6682 105.998 13.8282 105.638C12.9882 105.265 12.3282 104.732 11.8482 104.038C11.3549 103.345 11.1082 102.505 11.1082 101.518ZM12.0682 101.538C12.0682 102.512 12.3949 103.305 13.0482 103.918C13.7016 104.518 14.6282 104.865 15.8282 104.958L15.8282 98.5784C14.7082 98.5784 13.8016 98.825 13.1082 99.3184C12.4149 99.7984 12.0682 100.538 12.0682 101.538ZM11.3082 87.1232L20.9482 87.1232L20.9482 85.6832L25.5682 85.6832L25.5682 86.7832L21.9482 86.7832L21.9482 94.7832L25.5682 94.7832L25.5682 95.8832L20.9482 95.8832L20.9482 95.1432C19.7082 94.2499 18.2616 93.5699 16.6082 93.1032C14.9549 92.6365 13.1882 92.3899 11.3082 92.3632L11.3082 87.1232ZM12.2482 91.3432C13.9282 91.4232 15.5216 91.6832 17.0282 92.1232C18.5216 92.5499 19.8282 93.1432 20.9482 93.9032L20.9482 88.2432L12.2482 88.2432L12.2482 91.3432ZM11.1082 79.4285C11.1082 78.5218 11.3216 77.7685 11.7482 77.1685C12.1616 76.5552 12.7349 76.0952 13.4682 75.7885C14.2016 75.4685 15.0416 75.3085 15.9882 75.3085L16.7682 75.3085L16.7682 82.9085C18.1816 82.9085 19.2682 82.5818 20.0282 81.9285C20.7749 81.2618 21.1482 80.3152 21.1482 79.0885C21.1482 78.4352 21.0949 77.8618 20.9882 77.3685C20.8682 76.8752 20.6816 76.3352 20.4282 75.7485L21.4682 75.7485C21.7082 76.2818 21.8816 76.8085 21.9882 77.3285C22.0949 77.8485 22.1482 78.4485 22.1482 79.1285C22.1482 80.7285 21.6616 81.9552 20.6882 82.8085C19.7149 83.6618 18.3882 84.0885 16.7082 84.0885C15.6282 84.0885 14.6682 83.9085 13.8282 83.5485C12.9882 83.1752 12.3282 82.6418 11.8482 81.9485C11.3549 81.2552 11.1082 80.4152 11.1082 79.4285ZM12.0682 79.4485C12.0682 80.4218 12.3949 81.2152 13.0482 81.8285C13.7016 82.4285 14.6282 82.7752 15.8282 82.8685L15.8282 76.4885C14.7082 76.4885 13.8016 76.7352 13.1082 77.2285C12.4149 77.7085 12.0682 78.4485 12.0682 79.4485ZM21.9482 64.9134L21.9482 66.0734L12.2882 66.0734L12.2882 69.6734C14.5282 69.8334 16.3682 70.0467 17.8082 70.3134C19.2482 70.58 20.3149 70.9534 21.0082 71.4334C21.7016 71.9 22.0482 72.52 22.0482 73.2934C22.0482 73.6267 22.0149 73.8867 21.9482 74.0734L21.0482 74.0734C21.0882 73.94 21.1082 73.74 21.1082 73.4734C21.1082 72.66 20.3149 72.0467 18.7282 71.6334C17.1416 71.22 14.6682 70.9 11.3082 70.6734L11.3082 64.9134L21.9482 64.9134ZM11.1082 57.3582C11.1082 56.4515 11.3216 55.6982 11.7482 55.0982C12.1616 54.4849 12.7349 54.0249 13.4682 53.7182C14.2016 53.3982 15.0416 53.2382 15.9882 53.2382L16.7682 53.2382L16.7682 60.8382C18.1816 60.8382 19.2682 60.5115 20.0282 59.8582C20.7749 59.1915 21.1482 58.2449 21.1482 57.0182C21.1482 56.3649 21.0949 55.7915 20.9882 55.2982C20.8682 54.8049 20.6816 54.2649 20.4282 53.6782L21.4682 53.6782C21.7082 54.2115 21.8816 54.7382 21.9882 55.2582C22.0949 55.7782 22.1482 56.3782 22.1482 57.0582C22.1482 58.6582 21.6616 59.8849 20.6882 60.7382C19.7149 61.5915 18.3882 62.0182 16.7082 62.0182C15.6282 62.0182 14.6682 61.8382 13.8282 61.4782C12.9882 61.1049 12.3282 60.5715 11.8482 59.8782C11.3549 59.1849 11.1082 58.3449 11.1082 57.3582ZM12.0682 57.3782C12.0682 58.3515 12.3949 59.1449 13.0482 59.7582C13.7016 60.3582 14.6282 60.7049 15.8282 60.7982L15.8282 54.4182C14.7082 54.4182 13.8016 54.6649 13.1082 55.1582C12.4149 55.6382 12.0682 56.3782 12.0682 57.3782ZM11.3082 49.223L15.9282 49.223L15.9282 42.703L11.3082 42.703L11.3082 41.563L21.9482 41.563L21.9482 42.703L16.9082 42.703L16.9082 49.223L21.9482 49.223L21.9482 50.363L11.3082 50.363L11.3082 49.223ZM18.7082 36.9388C19.0016 36.9388 19.3349 36.9522 19.7082 36.9788C20.0816 36.9922 20.4149 37.0055 20.7082 37.0188L11.3082 30.7988L11.3082 29.3988L21.9482 29.3988L21.9482 30.4788L14.5282 30.4788C14.2349 30.4788 13.9016 30.4788 13.5282 30.4788C13.1416 30.4655 12.8082 30.4455 12.5282 30.4188L21.9482 36.6588L21.9482 38.0388L11.3082 38.0388L11.3082 36.9388L18.7082 36.9388ZM11.1082 21.8113C11.1082 20.9047 11.3216 20.1513 11.7482 19.5513C12.1616 18.938 12.7349 18.478 13.4682 18.1713C14.2016 17.8513 15.0416 17.6913 15.9882 17.6913L16.7682 17.6913L16.7682 25.2913C18.1816 25.2913 19.2682 24.9647 20.0282 24.3113C20.7749 23.6447 21.1482 22.698 21.1482 21.4713C21.1482 20.818 21.0949 20.2447 20.9882 19.7513C20.8682 19.258 20.6816 18.718 20.4282 18.1313L21.4682 18.1313C21.7082 18.6647 21.8816 19.1913 21.9882 19.7113C22.0949 20.2313 22.1482 20.8313 22.1482 21.5113C22.1482 23.1113 21.6616 24.338 20.6882 25.1913C19.7149 26.0447 18.3882 26.4713 16.7082 26.4713C15.6282 26.4713 14.6682 26.2913 13.8282 25.9313C12.9882 25.558 12.3282 25.0247 11.8482 24.3313C11.3549 23.638 11.1082 22.798 11.1082 21.8113ZM12.0682 21.8313C12.0682 22.8047 12.3949 23.598 13.0482 24.2113C13.7016 24.8113 14.6282 25.158 15.8282 25.2513L15.8282 18.8713C14.7082 18.8713 13.8016 19.118 13.1082 19.6113C12.4149 20.0913 12.0682 20.8313 12.0682 21.8313ZM48.9482 342.609L48.9482 343.929L42.3482 348.069L48.9482 352.269L48.9482 353.529L41.5282 348.749L34.6682 353.129L34.6682 351.829L40.7082 348.029L34.6682 344.209L34.6682 342.949L41.5082 347.369L48.9482 342.609ZM41.7882 328.882C43.2416 328.882 44.5216 329.122 45.6282 329.602C46.7349 330.082 47.6016 330.802 48.2282 331.762C48.8416 332.709 49.1482 333.889 49.1482 335.302C49.1482 336.742 48.8416 337.942 48.2282 338.902C47.6016 339.849 46.7349 340.562 45.6282 341.042C44.5082 341.509 43.2216 341.742 41.7682 341.742C40.3149 341.742 39.0416 341.502 37.9482 341.022C36.8549 340.529 36.0016 339.802 35.3882 338.842C34.7616 337.869 34.4482 336.669 34.4482 335.242C34.4482 333.869 34.7482 332.709 35.3482 331.762C35.9349 330.816 36.7749 330.102 37.8682 329.622C38.9616 329.129 40.2682 328.882 41.7882 328.882ZM41.7682 340.522C43.0349 340.522 44.1482 340.336 45.1082 339.962C46.0549 339.589 46.7949 339.016 47.3282 338.242C47.8482 337.469 48.1082 336.489 48.1082 335.302C48.1082 334.102 47.8482 333.122 47.3282 332.362C46.8082 331.589 46.0749 331.022 45.1282 330.662C44.1682 330.289 43.0549 330.102 41.7882 330.102C39.8016 330.102 38.2549 330.536 37.1482 331.402C36.0416 332.256 35.4882 333.536 35.4882 335.242C35.4882 336.429 35.7549 337.416 36.2882 338.202C36.8082 338.989 37.5416 339.576 38.4882 339.962C39.4216 340.336 40.5149 340.522 41.7682 340.522ZM48.9482 325.631L34.6682 325.631L34.6682 317.551L35.7082 317.551L35.7082 324.471L40.8882 324.471L40.8882 321.911C40.8882 320.124 41.2149 318.838 41.8682 318.051C42.5216 317.264 43.5082 316.871 44.8282 316.871C46.1616 316.871 47.1816 317.264 47.8882 318.051C48.5949 318.824 48.9482 320.031 48.9482 321.671L48.9482 325.631ZM47.9282 321.831C47.9282 320.511 47.6816 319.558 47.1882 318.971C46.6816 318.371 45.8949 318.071 44.8282 318.071C43.7082 318.071 42.9482 318.404 42.5482 319.071C42.1349 319.738 41.9282 320.738 41.9282 322.071L41.9282 324.471L47.9282 324.471L47.9282 321.831ZM48.9482 303.918L48.9482 305.078L35.7082 305.078L35.7082 310.118C36.6282 310.225 37.6149 310.345 38.6682 310.478C39.7216 310.612 40.7682 310.752 41.8082 310.898C42.8349 311.045 43.7749 311.205 44.6282 311.378C45.5349 311.552 46.3349 311.758 47.0282 311.998C47.7082 312.238 48.2349 312.558 48.6082 312.958C48.9816 313.345 49.1682 313.865 49.1682 314.518C49.1682 314.972 49.0949 315.358 48.9482 315.678L47.9482 315.678C48.0149 315.532 48.0682 315.378 48.1082 315.218C48.1482 315.045 48.1682 314.845 48.1682 314.618C48.1682 314.178 47.9949 313.825 47.6482 313.558C47.3016 313.292 46.8416 313.078 46.2682 312.918C45.6816 312.745 45.0349 312.592 44.3282 312.458C43.4482 312.298 42.4682 312.138 41.3882 311.978C40.2949 311.818 39.1749 311.665 38.0282 311.518C36.8682 311.372 35.7482 311.232 34.6682 311.098L34.6682 303.918L48.9482 303.918ZM49.1482 290.712C49.1482 292.272 48.6682 293.479 47.7082 294.332C46.7482 295.172 45.4082 295.592 43.6882 295.592C42.4882 295.592 41.4749 295.379 40.6482 294.952C39.8216 294.526 39.1949 293.932 38.7682 293.172C38.3282 292.399 38.1082 291.499 38.1082 290.472C38.1082 289.966 38.1549 289.486 38.2482 289.032C38.3416 288.579 38.4682 288.179 38.6282 287.832L39.6082 288.152C39.4616 288.512 39.3482 288.899 39.2682 289.312C39.1749 289.726 39.1282 290.119 39.1282 290.492C39.1282 291.759 39.5349 292.732 40.3482 293.412C41.1616 294.079 42.2682 294.412 43.6682 294.412C45.0016 294.412 46.0816 294.112 46.9082 293.512C47.7216 292.912 48.1282 291.979 48.1282 290.712C48.1282 290.192 48.0749 289.699 47.9682 289.232C47.8616 288.766 47.7282 288.346 47.5682 287.972L48.5882 287.972C48.7616 288.319 48.8949 288.719 48.9882 289.172C49.0949 289.612 49.1482 290.126 49.1482 290.712ZM38.1082 280.681C38.1082 279.321 38.5682 278.261 39.4882 277.501C40.4082 276.741 41.7682 276.361 43.5682 276.361C45.3682 276.361 46.7482 276.761 47.7082 277.561C48.6682 278.347 49.1482 279.427 49.1482 280.801C49.1482 281.734 48.9482 282.487 48.5482 283.061C48.1482 283.634 47.6682 284.054 47.1082 284.321L47.1082 284.401C47.4416 284.374 47.8082 284.354 48.2082 284.341C48.5949 284.327 48.9549 284.321 49.2882 284.321L53.6682 284.321L53.6682 285.461L38.3082 285.461L38.3082 284.521L40.2882 284.381L40.2882 284.321C39.7149 284.054 39.2082 283.627 38.7682 283.041C38.3282 282.454 38.1082 281.667 38.1082 280.681ZM39.0882 280.841C39.0882 282.027 39.4616 282.901 40.2082 283.461C40.9549 284.021 42.0282 284.307 43.4282 284.321L43.6282 284.321C45.1482 284.321 46.2882 284.047 47.0482 283.501C47.7949 282.941 48.1682 282.081 48.1682 280.921C48.1682 279.827 47.7616 278.994 46.9482 278.421C46.1216 277.834 44.9882 277.541 43.5482 277.541C42.1216 277.541 41.0216 277.821 40.2482 278.381C39.4749 278.927 39.0882 279.747 39.0882 280.841ZM38.1082 269.448C38.1082 268.541 38.3216 267.788 38.7482 267.188C39.1616 266.575 39.7349 266.115 40.4682 265.808C41.2016 265.488 42.0416 265.328 42.9882 265.328L43.7682 265.328L43.7682 272.928C45.1816 272.928 46.2682 272.601 47.0282 271.948C47.7749 271.281 48.1482 270.335 48.1482 269.108C48.1482 268.455 48.0949 267.881 47.9882 267.388C47.8682 266.895 47.6816 266.355 47.4282 265.768L48.4682 265.768C48.7082 266.301 48.8816 266.828 48.9882 267.348C49.0949 267.868 49.1482 268.468 49.1482 269.148C49.1482 270.748 48.6616 271.975 47.6882 272.828C46.7149 273.681 45.3882 274.108 43.7082 274.108C42.6282 274.108 41.6682 273.928 40.8282 273.568C39.9882 273.195 39.3282 272.661 38.8482 271.968C38.3549 271.275 38.1082 270.435 38.1082 269.448ZM39.0682 269.468C39.0682 270.441 39.3949 271.235 40.0482 271.848C40.7016 272.448 41.6282 272.795 42.8282 272.888L42.8282 266.508C41.7082 266.508 40.8016 266.755 40.1082 267.248C39.4149 267.728 39.0682 268.468 39.0682 269.468ZM38.3082 255.053L47.9482 255.053L47.9482 253.613L52.5682 253.613L52.5682 254.713L48.9482 254.713L48.9482 262.713L52.5682 262.713L52.5682 263.813L47.9482 263.813L47.9482 263.073C46.7082 262.18 45.2616 261.5 43.6082 261.033C41.9549 260.566 40.1882 260.32 38.3082 260.293L38.3082 255.053ZM39.2482 259.273C40.9282 259.353 42.5216 259.613 44.0282 260.053C45.5216 260.48 46.8282 261.073 47.9482 261.833L47.9482 256.173L39.2482 256.173L39.2482 259.273ZM45.7082 250.298C46.0016 250.298 46.3349 250.312 46.7082 250.338C47.0816 250.352 47.4149 250.365 47.7082 250.378L38.3082 244.158L38.3082 242.758L48.9482 242.758L48.9482 243.838L41.5282 243.838C41.2349 243.838 40.9016 243.838 40.5282 243.838C40.1416 243.825 39.8082 243.805 39.5282 243.778L48.9482 250.018L48.9482 251.398L38.3082 251.398L38.3082 250.298L45.7082 250.298ZM38.3082 223.455L48.9482 223.455L48.9482 224.495L41.4682 224.495C40.9482 224.495 40.3882 224.475 39.7882 224.435L39.7882 224.495L48.9482 228.275L48.9482 229.255L39.7682 232.995L39.7682 233.035C40.0749 233.022 40.3682 233.015 40.6482 233.015C40.9149 233.002 41.2082 232.995 41.5282 232.995L48.9482 232.995L48.9482 234.055L38.3082 234.055L38.3082 232.495L47.5282 228.755L38.3082 224.975L38.3082 223.455ZM38.3082 221.966L38.3082 220.766L44.9082 218.226C45.5082 218.013 46.0416 217.826 46.5082 217.666C46.9616 217.506 47.3682 217.38 47.7282 217.286L47.7282 217.226C47.0616 217.026 46.1349 216.713 44.9482 216.286L38.3082 213.806L38.3082 212.586L50.8282 217.386C51.7749 217.746 52.5016 218.173 53.0082 218.666C53.5149 219.16 53.7682 219.826 53.7682 220.666C53.7682 220.92 53.7549 221.153 53.7282 221.366C53.7016 221.566 53.6549 221.753 53.5882 221.926L52.6282 221.926C52.6816 221.766 52.7216 221.593 52.7482 221.406C52.7882 221.22 52.8082 221.02 52.8082 220.806C52.8082 220.246 52.6349 219.793 52.2882 219.446C51.9416 219.086 51.4082 218.766 50.6882 218.486L48.9082 217.806L38.3082 221.966ZM38.3082 199.451L43.4882 204.031L48.9482 199.091L48.9482 200.451L43.5482 205.271L48.9482 205.271L48.9482 206.351L43.5482 206.351L48.9482 211.171L48.9482 212.511L43.4882 207.571L38.3082 212.171L38.3082 210.871L43.4682 206.351L38.3082 206.351L38.3082 205.271L43.4682 205.271L38.3082 200.751L38.3082 199.451ZM41.9282 196.649C42.7816 196.649 43.4016 196.436 43.7882 196.009C44.1616 195.582 44.3482 194.962 44.3482 194.149C44.3482 193.429 44.2416 192.782 44.0282 192.209C43.8016 191.636 43.4949 191.076 43.1082 190.529L38.3082 190.529L38.3082 189.389L48.9482 189.389L48.9482 190.529L44.0682 190.529C44.4682 191.116 44.7816 191.702 45.0082 192.289C45.2216 192.876 45.3282 193.562 45.3282 194.349C45.3282 195.469 45.0416 196.322 44.4682 196.909C43.8816 197.496 43.0749 197.789 42.0482 197.789L38.3082 197.789L38.3082 196.649L41.9282 196.649ZM45.7082 184.771C46.0016 184.771 46.3349 184.784 46.7082 184.811C47.0816 184.824 47.4149 184.838 47.7082 184.851L38.3082 178.631L38.3082 177.231L48.9482 177.231L48.9482 178.311L41.5282 178.311C41.2349 178.311 40.9016 178.311 40.5282 178.311C40.1416 178.298 39.8082 178.278 39.5282 178.251L48.9482 184.491L48.9482 185.871L38.3082 185.871L38.3082 184.771L45.7082 184.771ZM38.3082 172.543L42.9282 172.543L42.9282 166.023L38.3082 166.023L38.3082 164.883L48.9482 164.883L48.9482 166.023L43.9082 166.023L43.9082 172.543L48.9482 172.543L48.9482 173.683L38.3082 173.683L38.3082 172.543ZM45.7082 155.064C46.0016 155.064 46.3349 155.077 46.7082 155.104C47.0816 155.117 47.4149 155.13 47.7082 155.144L38.3082 148.924L38.3082 147.524L48.9482 147.524L48.9482 148.604L41.5282 148.604C41.2349 148.604 40.9016 148.604 40.5282 148.604C40.1416 148.59 39.8082 148.57 39.5282 148.544L48.9482 154.784L48.9482 156.164L38.3082 156.164L38.3082 155.064L45.7082 155.064ZM38.3082 127.381L43.4882 131.961L48.9482 127.021L48.9482 128.381L43.5482 133.201L48.9482 133.201L48.9482 134.281L43.5482 134.281L48.9482 139.101L48.9482 140.441L43.4882 135.501L38.3082 140.101L38.3082 138.801L43.4682 134.281L38.3082 134.281L38.3082 133.201L43.4682 133.201L38.3082 128.681L38.3082 127.381ZM38.1082 121.499C38.1082 120.592 38.3216 119.839 38.7482 119.239C39.1616 118.625 39.7349 118.165 40.4682 117.859C41.2016 117.539 42.0416 117.379 42.9882 117.379L43.7682 117.379L43.7682 124.979C45.1816 124.979 46.2682 124.652 47.0282 123.999C47.7749 123.332 48.1482 122.385 48.1482 121.159C48.1482 120.505 48.0949 119.932 47.9882 119.439C47.8682 118.945 47.6816 118.405 47.4282 117.819L48.4682 117.819C48.7082 118.352 48.8816 118.879 48.9882 119.399C49.0949 119.919 49.1482 120.519 49.1482 121.199C49.1482 122.799 48.6616 124.025 47.6882 124.879C46.7149 125.732 45.3882 126.159 43.7082 126.159C42.6282 126.159 41.6682 125.979 40.8282 125.619C39.9882 125.245 39.3282 124.712 38.8482 124.019C38.3549 123.325 38.1082 122.485 38.1082 121.499ZM39.0682 121.519C39.0682 122.492 39.3949 123.285 40.0482 123.899C40.7016 124.499 41.6282 124.845 42.8282 124.939L42.8282 118.559C41.7082 118.559 40.8016 118.805 40.1082 119.299C39.4149 119.779 39.0682 120.519 39.0682 121.519ZM38.3082 113.364L42.9282 113.364L42.9282 106.844L38.3082 106.844L38.3082 105.704L48.9482 105.704L48.9482 106.844L43.9082 106.844L43.9082 113.364L48.9482 113.364L48.9482 114.504L38.3082 114.504L38.3082 113.364ZM38.3082 88.4995L47.9682 88.4995L47.9682 87.0395L52.5682 87.0395L52.5682 88.1795L48.9482 88.1795L48.9482 102.199L38.3082 102.199L38.3082 101.059L47.9482 101.059L47.9482 95.9195L38.3082 95.9195L38.3082 94.7795L47.9482 94.7795L47.9482 89.6195L38.3082 89.6195L38.3082 88.4995ZM45.7082 83.7162C46.0016 83.7162 46.3349 83.7295 46.7082 83.7562C47.0816 83.7695 47.4149 83.7828 47.7082 83.7962L38.3082 77.5762L38.3082 76.1762L48.9482 76.1762L48.9482 77.2562L41.5282 77.2562C41.2349 77.2562 40.9016 77.2562 40.5282 77.2562C40.1416 77.2428 39.8082 77.2228 39.5282 77.1962L48.9482 83.4362L48.9482 84.8162L38.3082 84.8162L38.3082 83.7162L45.7082 83.7162ZM38.3082 71.4887L42.9282 71.4887L42.9282 64.9687L38.3082 64.9687L38.3082 63.8287L48.9482 63.8287L48.9482 64.9687L43.9082 64.9687L43.9082 71.4887L48.9482 71.4887L48.9482 72.6287L38.3082 72.6287L38.3082 71.4887ZM46.8482 58.8845C47.5816 59.0578 48.3682 59.2778 49.2082 59.5445C50.0482 59.8111 50.8216 60.0978 51.5282 60.4045L51.5282 61.2645C49.7549 60.7845 48.1216 60.4311 46.6282 60.2045L46.6282 58.9845L46.8482 58.8845ZM34.4682 48.4374C34.4682 47.4908 34.8549 46.7774 35.6282 46.2974C36.4016 45.8174 37.5016 45.5774 38.9282 45.5774C40.3816 45.5774 41.4949 45.8241 42.2682 46.3174C43.0416 46.7974 43.4282 47.5108 43.4282 48.4574C43.4282 49.3774 43.0416 50.0774 42.2682 50.5574C41.4816 51.0374 40.3682 51.2774 38.9282 51.2774C37.4882 51.2774 36.3882 51.0374 35.6282 50.5574C34.8549 50.0774 34.4682 49.3708 34.4682 48.4374ZM34.6682 39.7374L48.9482 47.6574L48.9482 48.7174L34.6682 40.7974L34.6682 39.7374ZM35.3282 48.4374C35.3282 49.6641 36.5282 50.2774 38.9282 50.2774C41.3416 50.2774 42.5482 49.6708 42.5482 48.4574C42.5482 47.2041 41.3416 46.5774 38.9282 46.5774C37.7549 46.5774 36.8616 46.7308 36.2482 47.0374C35.6349 47.3308 35.3282 47.7974 35.3282 48.4374ZM40.1882 40.0574C40.1882 39.1108 40.5749 38.3974 41.3482 37.9174C42.1216 37.4374 43.2216 37.1974 44.6482 37.1974C46.1016 37.1974 47.2149 37.4441 47.9882 37.9374C48.7616 38.4174 49.1482 39.1308 49.1482 40.0774C49.1482 40.9974 48.7616 41.6974 47.9882 42.1774C47.2016 42.6574 46.0882 42.8974 44.6482 42.8974C43.2082 42.8974 42.1082 42.6574 41.3482 42.1774C40.5749 41.6974 40.1882 40.9908 40.1882 40.0574ZM41.0682 40.0574C41.0682 41.2841 42.2616 41.8974 44.6482 41.8974C47.0616 41.8974 48.2682 41.2908 48.2682 40.0774C48.2682 38.8241 47.0616 38.1974 44.6482 38.1974C43.4749 38.1974 42.5882 38.3508 41.9882 38.6574C41.3749 38.9508 41.0682 39.4174 41.0682 40.0574Z" fill="#01457A"/>
<path d="M89.1882 15.5304C89.1882 13.8237 89.4016 12.3437 89.8282 11.0904C90.2549 9.82368 90.9282 8.84368 91.8482 8.15035C92.7816 7.45702 93.9816 7.11035 95.4482 7.11035C96.1682 7.11035 96.7882 7.18368 97.3082 7.33035V8.35035C96.7882 8.16368 96.1749 8.07035 95.4682 8.07035C93.7482 8.07035 92.4749 8.65035 91.6482 9.81035C90.8216 10.9704 90.3749 12.617 90.3082 14.7504H90.3882C90.6682 14.2437 91.1149 13.7837 91.7282 13.3704C92.3549 12.957 93.1682 12.7504 94.1682 12.7504C95.4482 12.7504 96.4616 13.137 97.2082 13.9104C97.9549 14.6704 98.3282 15.717 98.3282 17.0504C98.3282 18.4904 97.9349 19.6437 97.1482 20.5104C96.3749 21.377 95.3016 21.8104 93.9282 21.8104C92.9016 21.8104 92.0349 21.5437 91.3282 21.0104C90.6216 20.4637 90.0882 19.7237 89.7282 18.7904C89.3682 17.8437 89.1882 16.757 89.1882 15.5304ZM93.9082 20.8104C94.9349 20.8104 95.7349 20.4904 96.3082 19.8504C96.8949 19.2104 97.1882 18.277 97.1882 17.0504C97.1882 16.0104 96.9216 15.1904 96.3882 14.5904C95.8549 13.9904 95.0549 13.6904 93.9882 13.6904C93.2549 13.6904 92.6149 13.8437 92.0682 14.1504C91.5349 14.4437 91.1216 14.8104 90.8282 15.2504C90.5349 15.6904 90.3882 16.1237 90.3882 16.5504C90.3882 16.977 90.4482 17.437 90.5682 17.9304C90.6882 18.4104 90.8816 18.8704 91.1482 19.3104C91.4282 19.7504 91.7949 20.1104 92.2482 20.3904C92.7016 20.6704 93.2549 20.8104 93.9082 20.8104ZM102.554 19.5104C102.381 20.2437 102.161 21.0304 101.894 21.8704C101.627 22.7104 101.341 23.4837 101.034 24.1904H100.174C100.654 22.417 101.007 20.7837 101.234 19.2904H102.454L102.554 19.5104ZM114.186 14.4304C114.186 16.8037 113.819 18.6304 113.086 19.9104C112.352 21.177 111.186 21.8104 109.586 21.8104C108.079 21.8104 106.939 21.1837 106.166 19.9304C105.392 18.677 105.006 16.8437 105.006 14.4304C105.006 12.9637 105.152 11.6837 105.446 10.5904C105.739 9.49702 106.226 8.64368 106.906 8.03035C107.586 7.41702 108.486 7.11035 109.606 7.11035C110.699 7.11035 111.579 7.41035 112.246 8.01035C112.926 8.61035 113.419 9.45702 113.726 10.5504C114.032 11.6437 114.186 12.937 114.186 14.4304ZM106.146 14.4304C106.146 16.5904 106.419 18.197 106.966 19.2504C107.526 20.2904 108.399 20.8104 109.586 20.8104C110.812 20.8104 111.692 20.2837 112.226 19.2304C112.759 18.177 113.026 16.577 113.026 14.4304C113.026 13.097 112.919 11.9637 112.706 11.0304C112.506 10.0837 112.152 9.36368 111.646 8.87035C111.152 8.36368 110.472 8.11035 109.606 8.11035C108.739 8.11035 108.052 8.36368 107.546 8.87035C107.052 9.37702 106.692 10.1037 106.466 11.0504C106.252 11.997 106.146 13.1237 106.146 14.4304Z" fill="#01457A"/>
<rect x="168.948" y="190.338" width="18" height="18" fill="#78B3DB"/>
<path d="M205.148 209.338L200.028 196.278H199.968C199.982 196.651 199.995 197.078 200.008 197.558C200.035 198.025 200.048 198.518 200.048 199.038V209.338H198.948V195.058H200.708L205.628 207.558H205.688L210.668 195.058H212.388V209.338H211.228V198.918C211.228 198.478 211.235 198.031 211.248 197.578C211.275 197.111 211.295 196.685 211.308 196.298H211.248L206.088 209.338H205.148ZM214.41 198.698H215.61L218.15 205.298C218.363 205.898 218.55 206.431 218.71 206.898C218.87 207.351 218.996 207.758 219.09 208.118H219.15C219.35 207.451 219.663 206.525 220.09 205.338L222.57 198.698H223.79L218.99 211.218C218.63 212.165 218.203 212.891 217.71 213.398C217.216 213.905 216.55 214.158 215.71 214.158C215.456 214.158 215.223 214.145 215.01 214.118C214.81 214.091 214.623 214.045 214.45 213.978V213.018C214.61 213.071 214.783 213.111 214.97 213.138C215.156 213.178 215.356 213.198 215.57 213.198C216.13 213.198 216.583 213.025 216.93 212.678C217.29 212.331 217.61 211.798 217.89 211.078L218.57 209.298L214.41 198.698ZM236.925 198.698L232.345 203.878L237.285 209.338H235.925L231.105 203.938V209.338H230.025V203.938L225.205 209.338H223.865L228.805 203.878L224.205 198.698H225.505L230.025 203.858V198.698H231.105V203.858L235.625 198.698H236.925ZM239.727 202.318C239.727 203.171 239.94 203.791 240.367 204.178C240.794 204.551 241.414 204.738 242.227 204.738C242.947 204.738 243.594 204.631 244.167 204.418C244.74 204.191 245.3 203.885 245.847 203.498V198.698H246.987V209.338H245.847V204.458C245.26 204.858 244.674 205.171 244.087 205.398C243.5 205.611 242.814 205.718 242.027 205.718C240.907 205.718 240.054 205.431 239.467 204.858C238.88 204.271 238.587 203.465 238.587 202.438V198.698H239.727V202.318ZM251.605 206.098C251.605 206.391 251.592 206.725 251.565 207.098C251.552 207.471 251.538 207.805 251.525 208.098L257.745 198.698H259.145V209.338H258.065V201.918C258.065 201.625 258.065 201.291 258.065 200.918C258.078 200.531 258.098 200.198 258.125 199.918L251.885 209.338H250.505V198.698H251.605V206.098ZM263.833 198.698V203.318H270.353V198.698H271.493V209.338H270.353V204.298H263.833V209.338H262.693V198.698H263.833ZM275.017 209.338V198.698H276.157V203.158H279.617C280.897 203.158 281.837 203.418 282.437 203.938C283.037 204.458 283.337 205.191 283.337 206.138C283.337 207.138 283.024 207.925 282.397 208.498C281.77 209.058 280.784 209.338 279.437 209.338H275.017ZM285.037 209.338V198.698H286.177V209.338H285.037ZM279.317 208.378C281.237 208.378 282.197 207.645 282.197 206.178C282.197 205.471 281.964 204.958 281.497 204.638C281.044 204.305 280.37 204.138 279.477 204.138H276.157V208.378H279.317Z" fill="#01457A"/>
<rect x="168.948" y="216.338" width="18" height="18" fill="#BCD77E"/>
<path d="M203.068 228.018L197.308 221.058H198.648L204.328 227.978V221.058H205.448V227.978L211.148 221.058H212.488L206.708 227.998L212.728 235.338H211.348L205.448 228.098V235.338H204.328V228.098L198.428 235.338H197.068L203.068 228.018ZM218.647 224.498C219.553 224.498 220.307 224.711 220.907 225.138C221.52 225.551 221.98 226.125 222.287 226.858C222.607 227.591 222.767 228.431 222.767 229.378V230.158H215.167C215.167 231.571 215.493 232.658 216.147 233.418C216.813 234.165 217.76 234.538 218.987 234.538C219.64 234.538 220.213 234.485 220.707 234.378C221.2 234.258 221.74 234.071 222.327 233.818V234.858C221.793 235.098 221.267 235.271 220.747 235.378C220.227 235.485 219.627 235.538 218.947 235.538C217.347 235.538 216.12 235.051 215.267 234.078C214.413 233.105 213.987 231.778 213.987 230.098C213.987 229.018 214.167 228.058 214.527 227.218C214.9 226.378 215.433 225.718 216.127 225.238C216.82 224.745 217.66 224.498 218.647 224.498ZM218.627 225.458C217.653 225.458 216.86 225.785 216.247 226.438C215.647 227.091 215.3 228.018 215.207 229.218H221.587C221.587 228.098 221.34 227.191 220.847 226.498C220.367 225.805 219.627 225.458 218.627 225.458ZM226.782 224.698V229.318H233.302V224.698H234.442V235.338H233.302V230.298H226.782V235.338H225.642V224.698H226.782ZM251.646 224.698V234.358H253.106V238.958H251.966V235.338H237.946V224.698H239.086V234.338H244.226V224.698H245.366V234.338H250.526V224.698H251.646ZM256.429 232.098C256.429 232.391 256.416 232.725 256.389 233.098C256.376 233.471 256.363 233.805 256.349 234.098L262.569 224.698H263.969V235.338H262.889V227.918C262.889 227.625 262.889 227.291 262.889 226.918C262.903 226.531 262.923 226.198 262.949 225.918L256.709 235.338H255.329V224.698H256.429V232.098ZM268.657 224.698V229.318H275.177V224.698H276.317V235.338H275.177V230.298H268.657V235.338H267.517V224.698H268.657ZM279.841 235.338V224.698H280.981V229.158H284.441C285.721 229.158 286.661 229.418 287.261 229.938C287.861 230.458 288.161 231.191 288.161 232.138C288.161 233.138 287.848 233.925 287.221 234.498C286.594 235.058 285.608 235.338 284.261 235.338H279.841ZM289.861 235.338V224.698H291.001V235.338H289.861ZM284.141 234.378C286.061 234.378 287.021 233.645 287.021 232.178C287.021 231.471 286.788 230.958 286.321 230.638C285.868 230.305 285.194 230.138 284.301 230.138H280.981V234.378H284.141Z" fill="#01457A"/>
<path d="M93.4482 68.3678C94.8882 68.3678 96.0282 68.7345 96.8682 69.4678C97.7216 70.1878 98.1482 71.2145 98.1482 72.5478C98.1482 74.0011 97.6816 75.1411 96.7482 75.9678C95.8149 76.7945 94.5549 77.2078 92.9682 77.2078C92.2082 77.2078 91.5149 77.1345 90.8882 76.9878C90.2749 76.8411 89.7549 76.6411 89.3282 76.3878V75.2678C89.7816 75.5478 90.3282 75.7745 90.9682 75.9478C91.6216 76.1211 92.2882 76.2078 92.9682 76.2078C94.1682 76.2078 95.1349 75.9078 95.8682 75.3078C96.6149 74.6945 96.9882 73.8078 96.9882 72.6478C96.9882 71.6078 96.6682 70.8011 96.0282 70.2278C95.4016 69.6411 94.4416 69.3478 93.1482 69.3478C92.6549 69.3478 92.1616 69.3878 91.6682 69.4678C91.1882 69.5478 90.7549 69.6345 90.3682 69.7278L89.7282 69.3078L90.3082 62.7278H97.2282V63.7678H91.2882L90.8682 68.6678C91.1482 68.6145 91.5016 68.5545 91.9282 68.4878C92.3549 68.4078 92.8616 68.3678 93.4482 68.3678ZM102.554 74.9078C102.381 75.6411 102.161 76.4278 101.894 77.2678C101.627 78.1078 101.341 78.8811 101.034 79.5878H100.174C100.654 77.8145 101.007 76.1811 101.234 74.6878H102.454L102.554 74.9078ZM114.186 69.8278C114.186 72.2011 113.819 74.0278 113.086 75.3078C112.352 76.5745 111.186 77.2078 109.586 77.2078C108.079 77.2078 106.939 76.5811 106.166 75.3278C105.392 74.0745 105.006 72.2411 105.006 69.8278C105.006 68.3611 105.152 67.0811 105.446 65.9878C105.739 64.8945 106.226 64.0411 106.906 63.4278C107.586 62.8145 108.486 62.5078 109.606 62.5078C110.699 62.5078 111.579 62.8078 112.246 63.4078C112.926 64.0078 113.419 64.8545 113.726 65.9478C114.032 67.0411 114.186 68.3345 114.186 69.8278ZM106.146 69.8278C106.146 71.9878 106.419 73.5945 106.966 74.6478C107.526 75.6878 108.399 76.2078 109.586 76.2078C110.812 76.2078 111.692 75.6811 112.226 74.6278C112.759 73.5745 113.026 71.9745 113.026 69.8278C113.026 68.4945 112.919 67.3611 112.706 66.4278C112.506 65.4811 112.152 64.7611 111.646 64.2678C111.152 63.7611 110.472 63.5078 109.606 63.5078C108.739 63.5078 108.052 63.7611 107.546 64.2678C107.052 64.7745 106.692 65.5011 106.466 66.4478C106.252 67.3945 106.146 68.5211 106.146 69.8278Z" fill="#01457A"/>
<path d="M99.0682 128.846H96.6882V132.406H95.5882V128.846H88.4082V127.906L95.5082 118.046H96.6882V127.806H99.0682V128.846ZM95.5882 122.506C95.5882 121.986 95.5882 121.546 95.5882 121.186C95.5882 120.826 95.5949 120.506 95.6082 120.226C95.6216 119.933 95.6349 119.626 95.6482 119.306H95.5882C95.4149 119.613 95.2482 119.9 95.0882 120.166C94.9282 120.433 94.7349 120.72 94.5082 121.026L89.6282 127.806H95.5882V122.506ZM102.554 130.306C102.381 131.04 102.161 131.826 101.894 132.666C101.627 133.506 101.341 134.28 101.034 134.986H100.174C100.654 133.213 101.007 131.58 101.234 130.086H102.454L102.554 130.306ZM114.186 125.226C114.186 127.6 113.819 129.426 113.086 130.706C112.352 131.973 111.186 132.606 109.586 132.606C108.079 132.606 106.939 131.98 106.166 130.726C105.392 129.473 105.006 127.64 105.006 125.226C105.006 123.76 105.152 122.48 105.446 121.386C105.739 120.293 106.226 119.44 106.906 118.826C107.586 118.213 108.486 117.906 109.606 117.906C110.699 117.906 111.579 118.206 112.246 118.806C112.926 119.406 113.419 120.253 113.726 121.346C114.032 122.44 114.186 123.733 114.186 125.226ZM106.146 125.226C106.146 127.386 106.419 128.993 106.966 130.046C107.526 131.086 108.399 131.606 109.586 131.606C110.812 131.606 111.692 131.08 112.226 130.026C112.759 128.973 113.026 127.373 113.026 125.226C113.026 123.893 112.919 122.76 112.706 121.826C112.506 120.88 112.152 120.16 111.646 119.666C111.152 119.16 110.472 118.906 109.606 118.906C108.739 118.906 108.052 119.16 107.546 119.666C107.052 120.173 106.692 120.9 106.466 121.846C106.252 122.793 106.146 123.92 106.146 125.226Z" fill="#01457A"/>
<path d="M97.5882 176.824C97.5882 177.77 97.3082 178.544 96.7482 179.144C96.1882 179.744 95.4682 180.124 94.5882 180.284V180.344C96.8816 180.65 98.0282 181.81 98.0282 183.824C98.0282 185.05 97.5949 186.057 96.7282 186.844C95.8749 187.617 94.5749 188.004 92.8282 188.004C91.3082 188.004 89.9882 187.73 88.8682 187.184V186.084C89.4149 186.364 90.0416 186.59 90.7482 186.764C91.4549 186.924 92.1549 187.004 92.8482 187.004C94.2082 187.004 95.2082 186.717 95.8482 186.144C96.5016 185.57 96.8282 184.79 96.8282 183.804C96.8282 182.764 96.4416 182.024 95.6682 181.584C94.8949 181.13 93.8616 180.904 92.5682 180.904H91.0482V179.904H92.5882C93.6949 179.904 94.6082 179.65 95.3282 179.144C96.0482 178.624 96.4082 177.87 96.4082 176.884C96.4082 176.044 96.1349 175.404 95.5882 174.964C95.0416 174.524 94.3149 174.304 93.4082 174.304C92.6482 174.304 91.9616 174.424 91.3482 174.664C90.7482 174.89 90.1549 175.204 89.5682 175.604L88.9882 174.804C89.5349 174.377 90.1749 174.024 90.9082 173.744C91.6549 173.464 92.4882 173.324 93.4082 173.324C94.7282 173.324 95.7549 173.644 96.4882 174.284C97.2216 174.91 97.5882 175.757 97.5882 176.824ZM102.554 185.704C102.381 186.437 102.161 187.224 101.894 188.064C101.627 188.904 101.341 189.677 101.034 190.384H100.174C100.654 188.61 101.007 186.977 101.234 185.484H102.454L102.554 185.704ZM114.186 180.624C114.186 182.997 113.819 184.824 113.086 186.104C112.352 187.37 111.186 188.004 109.586 188.004C108.079 188.004 106.939 187.377 106.166 186.124C105.392 184.87 105.006 183.037 105.006 180.624C105.006 179.157 105.152 177.877 105.446 176.784C105.739 175.69 106.226 174.837 106.906 174.224C107.586 173.61 108.486 173.304 109.606 173.304C110.699 173.304 111.579 173.604 112.246 174.204C112.926 174.804 113.419 175.65 113.726 176.744C114.032 177.837 114.186 179.13 114.186 180.624ZM106.146 180.624C106.146 182.784 106.419 184.39 106.966 185.444C107.526 186.484 108.399 187.004 109.586 187.004C110.812 187.004 111.692 186.477 112.226 185.424C112.759 184.37 113.026 182.77 113.026 180.624C113.026 179.29 112.919 178.157 112.706 177.224C112.506 176.277 112.152 175.557 111.646 175.064C111.152 174.557 110.472 174.304 109.606 174.304C108.739 174.304 108.052 174.557 107.546 175.064C107.052 175.57 106.692 176.297 106.466 177.244C106.252 178.19 106.146 179.317 106.146 180.624Z" fill="#01457A"/>
<path d="M98.0682 243.201H89.0282V242.241L93.1282 237.981C93.8082 237.275 94.3816 236.641 94.8482 236.081C95.3149 235.521 95.6682 234.961 95.9082 234.401C96.1482 233.841 96.2682 233.215 96.2682 232.521C96.2682 231.628 96.0082 230.941 95.4882 230.461C94.9682 229.968 94.2682 229.721 93.3882 229.721C92.7482 229.721 92.1482 229.835 91.5882 230.061C91.0282 230.288 90.4749 230.615 89.9282 231.041L89.3082 230.241C89.8949 229.761 90.5349 229.388 91.2282 229.121C91.9216 228.855 92.6416 228.721 93.3882 228.721C94.6149 228.721 95.5949 229.061 96.3282 229.741C97.0749 230.421 97.4482 231.328 97.4482 232.461C97.4482 233.235 97.3082 233.941 97.0282 234.581C96.7482 235.221 96.3549 235.848 95.8482 236.461C95.3416 237.075 94.7482 237.728 94.0682 238.421L90.4882 242.101V242.141H98.0682V243.201ZM102.554 241.101C102.381 241.835 102.161 242.621 101.894 243.461C101.627 244.301 101.341 245.075 101.034 245.781H100.174C100.654 244.008 101.007 242.375 101.234 240.881H102.454L102.554 241.101ZM114.186 236.021C114.186 238.395 113.819 240.221 113.086 241.501C112.352 242.768 111.186 243.401 109.586 243.401C108.079 243.401 106.939 242.775 106.166 241.521C105.392 240.268 105.006 238.435 105.006 236.021C105.006 234.555 105.152 233.275 105.446 232.181C105.739 231.088 106.226 230.235 106.906 229.621C107.586 229.008 108.486 228.701 109.606 228.701C110.699 228.701 111.579 229.001 112.246 229.601C112.926 230.201 113.419 231.048 113.726 232.141C114.032 233.235 114.186 234.528 114.186 236.021ZM106.146 236.021C106.146 238.181 106.419 239.788 106.966 240.841C107.526 241.881 108.399 242.401 109.586 242.401C110.812 242.401 111.692 241.875 112.226 240.821C112.759 239.768 113.026 238.168 113.026 236.021C113.026 234.688 112.919 233.555 112.706 232.621C112.506 231.675 112.152 230.955 111.646 230.461C111.152 229.955 110.472 229.701 109.606 229.701C108.739 229.701 108.052 229.955 107.546 230.461C107.052 230.968 106.692 231.695 106.466 232.641C106.252 233.588 106.146 234.715 106.146 236.021Z" fill="#01457A"/>
<path d="M94.7082 298.6H93.5882V287.98C93.5882 287.406 93.5882 286.94 93.5882 286.58C93.6016 286.206 93.6149 285.853 93.6282 285.52C93.4416 285.706 93.2616 285.866 93.0882 286C92.9282 286.133 92.7216 286.3 92.4682 286.5L90.4882 288.04L89.8682 287.24L93.7482 284.32H94.7082V298.6ZM102.554 296.5C102.381 297.233 102.161 298.02 101.894 298.86C101.627 299.7 101.341 300.473 101.034 301.18H100.174C100.654 299.406 101.007 297.773 101.234 296.28H102.454L102.554 296.5ZM114.186 291.42C114.186 293.793 113.819 295.62 113.086 296.9C112.352 298.166 111.186 298.8 109.586 298.8C108.079 298.8 106.939 298.173 106.166 296.92C105.392 295.666 105.006 293.833 105.006 291.42C105.006 289.953 105.152 288.673 105.446 287.58C105.739 286.486 106.226 285.633 106.906 285.02C107.586 284.406 108.486 284.1 109.606 284.1C110.699 284.1 111.579 284.4 112.246 285C112.926 285.6 113.419 286.446 113.726 287.54C114.032 288.633 114.186 289.926 114.186 291.42ZM106.146 291.42C106.146 293.58 106.419 295.186 106.966 296.24C107.526 297.28 108.399 297.8 109.586 297.8C110.812 297.8 111.692 297.273 112.226 296.22C112.759 295.166 113.026 293.566 113.026 291.42C113.026 290.086 112.919 288.953 112.706 288.02C112.506 287.073 112.152 286.353 111.646 285.86C111.152 285.353 110.472 285.1 109.606 285.1C108.739 285.1 108.052 285.353 107.546 285.86C107.052 286.366 106.692 287.093 106.466 288.04C106.252 288.986 106.146 290.113 106.146 291.42Z" fill="#01457A"/>
<rect x="180.948" y="318.338" width="51" height="36" fill="#78B3DB"/>
<rect x="240.948" y="277.338" width="51" height="77" fill="#BCD77E"/>
<path d="M203.84 376.778H201.46V380.338H200.36V376.778H193.18V375.838L200.28 365.978H201.46V375.738H203.84V376.778ZM200.36 370.438C200.36 369.918 200.36 369.478 200.36 369.118C200.36 368.758 200.366 368.438 200.38 368.158C200.393 367.865 200.406 367.558 200.42 367.238H200.36C200.186 367.545 200.02 367.831 199.86 368.098C199.7 368.365 199.506 368.651 199.28 368.958L194.4 375.738H200.36V370.438ZM209.646 371.698C211.086 371.698 212.226 372.065 213.066 372.798C213.919 373.518 214.346 374.545 214.346 375.878C214.346 377.331 213.879 378.471 212.946 379.298C212.012 380.125 210.752 380.538 209.166 380.538C208.406 380.538 207.712 380.465 207.086 380.318C206.472 380.171 205.952 379.971 205.526 379.718V378.598C205.979 378.878 206.526 379.105 207.166 379.278C207.819 379.451 208.486 379.538 209.166 379.538C210.366 379.538 211.332 379.238 212.066 378.638C212.812 378.025 213.186 377.138 213.186 375.978C213.186 374.938 212.866 374.131 212.226 373.558C211.599 372.971 210.639 372.678 209.346 372.678C208.852 372.678 208.359 372.718 207.866 372.798C207.386 372.878 206.952 372.965 206.566 373.058L205.926 372.638L206.506 366.058H213.426V367.098H207.486L207.066 371.998C207.346 371.945 207.699 371.885 208.126 371.818C208.552 371.738 209.059 371.698 209.646 371.698ZM216.371 375.458V374.418H221.211V375.458H216.371ZM233.137 376.778H230.757V380.338H229.657V376.778H222.477V375.838L229.577 365.978H230.757V375.738H233.137V376.778ZM229.657 370.438C229.657 369.918 229.657 369.478 229.657 369.118C229.657 368.758 229.663 368.438 229.677 368.158C229.69 367.865 229.703 367.558 229.717 367.238H229.657C229.483 367.545 229.317 367.831 229.157 368.098C228.997 368.365 228.803 368.651 228.577 368.958L223.697 375.738H229.657V370.438ZM243.642 372.118C243.642 373.825 243.422 375.311 242.982 376.578C242.556 377.831 241.882 378.811 240.962 379.518C240.042 380.211 238.849 380.558 237.382 380.558C237.049 380.558 236.696 380.538 236.322 380.498C235.949 380.458 235.642 380.398 235.402 380.318V379.298C235.642 379.378 235.936 379.445 236.282 379.498C236.642 379.551 237.002 379.578 237.362 379.578C239.069 379.578 240.336 378.998 241.162 377.838C242.002 376.678 242.449 375.031 242.502 372.898H242.422C242.142 373.418 241.689 373.885 241.062 374.298C240.436 374.711 239.622 374.918 238.622 374.918C237.342 374.918 236.336 374.538 235.602 373.778C234.869 373.005 234.502 371.945 234.502 370.598C234.502 369.158 234.896 368.011 235.682 367.158C236.469 366.291 237.549 365.858 238.922 365.858C239.949 365.858 240.809 366.125 241.502 366.658C242.209 367.191 242.742 367.931 243.102 368.878C243.462 369.811 243.642 370.891 243.642 372.118ZM238.922 366.838C237.896 366.838 237.089 367.165 236.502 367.818C235.929 368.458 235.642 369.378 235.642 370.578C235.642 371.631 235.902 372.465 236.422 373.078C236.942 373.678 237.742 373.978 238.822 373.978C239.569 373.978 240.209 373.831 240.742 373.538C241.289 373.231 241.709 372.858 242.002 372.418C242.296 371.965 242.442 371.518 242.442 371.078C242.442 370.678 242.376 370.238 242.242 369.758C242.122 369.265 241.929 368.798 241.662 368.358C241.396 367.918 241.036 367.558 240.582 367.278C240.129 366.985 239.576 366.838 238.922 366.838ZM259.343 380.338H258.183V370.678H254.583C254.423 372.918 254.21 374.758 253.943 376.198C253.677 377.638 253.303 378.705 252.823 379.398C252.357 380.091 251.737 380.438 250.963 380.438C250.63 380.438 250.37 380.405 250.183 380.338V379.438C250.317 379.478 250.517 379.498 250.783 379.498C251.597 379.498 252.21 378.705 252.623 377.118C253.037 375.531 253.357 373.058 253.583 369.698H259.343V380.338ZM266.899 369.498C267.805 369.498 268.559 369.711 269.159 370.138C269.772 370.551 270.232 371.125 270.539 371.858C270.859 372.591 271.019 373.431 271.019 374.378V375.158H263.419C263.419 376.571 263.745 377.658 264.399 378.418C265.065 379.165 266.012 379.538 267.239 379.538C267.892 379.538 268.465 379.485 268.959 379.378C269.452 379.258 269.992 379.071 270.579 378.818V379.858C270.045 380.098 269.519 380.271 268.999 380.378C268.479 380.485 267.879 380.538 267.199 380.538C265.599 380.538 264.372 380.051 263.519 379.078C262.665 378.105 262.239 376.778 262.239 375.098C262.239 374.018 262.419 373.058 262.779 372.218C263.152 371.378 263.685 370.718 264.379 370.238C265.072 369.745 265.912 369.498 266.899 369.498ZM266.879 370.458C265.905 370.458 265.112 370.785 264.499 371.438C263.899 372.091 263.552 373.018 263.459 374.218H269.839C269.839 373.098 269.592 372.191 269.099 371.498C268.619 370.805 267.879 370.458 266.879 370.458ZM280.774 370.678H277.214V380.338H276.074V370.678H272.534V369.698H280.774V370.678Z" fill="#01457A"/>
<rect x="328.948" y="302.338" width="51" height="52" fill="#78B3DB"/>
<rect x="388.948" y="232.338" width="51" height="122" fill="#BCD77E"/>
<path d="M346.22 371.698C347.66 371.698 348.8 372.065 349.64 372.798C350.493 373.518 350.92 374.545 350.92 375.878C350.92 377.331 350.453 378.471 349.52 379.298C348.586 380.125 347.326 380.538 345.74 380.538C344.98 380.538 344.286 380.465 343.66 380.318C343.046 380.171 342.526 379.971 342.1 379.718V378.598C342.553 378.878 343.1 379.105 343.74 379.278C344.393 379.451 345.06 379.538 345.74 379.538C346.94 379.538 347.906 379.238 348.64 378.638C349.386 378.025 349.76 377.138 349.76 375.978C349.76 374.938 349.44 374.131 348.8 373.558C348.173 372.971 347.213 372.678 345.92 372.678C345.426 372.678 344.933 372.718 344.44 372.798C343.96 372.878 343.526 372.965 343.14 373.058L342.5 372.638L343.08 366.058H350V367.098H344.06L343.64 371.998C343.92 371.945 344.273 371.885 344.7 371.818C345.126 371.738 345.633 371.698 346.22 371.698ZM362.446 373.158C362.446 375.531 362.079 377.358 361.346 378.638C360.612 379.905 359.446 380.538 357.846 380.538C356.339 380.538 355.199 379.911 354.426 378.658C353.652 377.405 353.266 375.571 353.266 373.158C353.266 371.691 353.412 370.411 353.706 369.318C353.999 368.225 354.486 367.371 355.166 366.758C355.846 366.145 356.746 365.838 357.866 365.838C358.959 365.838 359.839 366.138 360.506 366.738C361.186 367.338 361.679 368.185 361.986 369.278C362.292 370.371 362.446 371.665 362.446 373.158ZM354.406 373.158C354.406 375.318 354.679 376.925 355.226 377.978C355.786 379.018 356.659 379.538 357.846 379.538C359.072 379.538 359.952 379.011 360.486 377.958C361.019 376.905 361.286 375.305 361.286 373.158C361.286 371.825 361.179 370.691 360.966 369.758C360.766 368.811 360.412 368.091 359.906 367.598C359.412 367.091 358.732 366.838 357.866 366.838C356.999 366.838 356.312 367.091 355.806 367.598C355.312 368.105 354.952 368.831 354.726 369.778C354.512 370.725 354.406 371.851 354.406 373.158ZM364.371 375.458V374.418H369.211V375.458H364.371ZM375.517 371.698C376.957 371.698 378.097 372.065 378.937 372.798C379.79 373.518 380.217 374.545 380.217 375.878C380.217 377.331 379.75 378.471 378.817 379.298C377.883 380.125 376.623 380.538 375.037 380.538C374.277 380.538 373.583 380.465 372.957 380.318C372.343 380.171 371.823 379.971 371.397 379.718V378.598C371.85 378.878 372.397 379.105 373.037 379.278C373.69 379.451 374.357 379.538 375.037 379.538C376.237 379.538 377.203 379.238 377.937 378.638C378.683 378.025 379.057 377.138 379.057 375.978C379.057 374.938 378.737 374.131 378.097 373.558C377.47 372.971 376.51 372.678 375.217 372.678C374.723 372.678 374.23 372.718 373.737 372.798C373.257 372.878 372.823 372.965 372.437 373.058L371.797 372.638L372.377 366.058H379.297V367.098H373.357L372.937 371.998C373.217 371.945 373.57 371.885 373.997 371.818C374.423 371.738 374.93 371.698 375.517 371.698ZM392.562 376.778H390.182V380.338H389.082V376.778H381.902V375.838L389.002 365.978H390.182V375.738H392.562V376.778ZM389.082 370.438C389.082 369.918 389.082 369.478 389.082 369.118C389.082 368.758 389.089 368.438 389.102 368.158C389.116 367.865 389.129 367.558 389.142 367.238H389.082C388.909 367.545 388.742 367.831 388.582 368.098C388.422 368.365 388.229 368.651 388.002 368.958L383.122 375.738H389.082V370.438ZM407.343 380.338H406.183V370.678H402.583C402.423 372.918 402.21 374.758 401.943 376.198C401.677 377.638 401.303 378.705 400.823 379.398C400.357 380.091 399.737 380.438 398.963 380.438C398.63 380.438 398.37 380.405 398.183 380.338V379.438C398.317 379.478 398.517 379.498 398.783 379.498C399.597 379.498 400.21 378.705 400.623 377.118C401.037 375.531 401.357 373.058 401.583 369.698H407.343V380.338ZM414.899 369.498C415.805 369.498 416.559 369.711 417.159 370.138C417.772 370.551 418.232 371.125 418.539 371.858C418.859 372.591 419.019 373.431 419.019 374.378V375.158H411.419C411.419 376.571 411.745 377.658 412.399 378.418C413.065 379.165 414.012 379.538 415.239 379.538C415.892 379.538 416.465 379.485 416.959 379.378C417.452 379.258 417.992 379.071 418.579 378.818V379.858C418.045 380.098 417.519 380.271 416.999 380.378C416.479 380.485 415.879 380.538 415.199 380.538C413.599 380.538 412.372 380.051 411.519 379.078C410.665 378.105 410.239 376.778 410.239 375.098C410.239 374.018 410.419 373.058 410.779 372.218C411.152 371.378 411.685 370.718 412.379 370.238C413.072 369.745 413.912 369.498 414.899 369.498ZM414.879 370.458C413.905 370.458 413.112 370.785 412.499 371.438C411.899 372.091 411.552 373.018 411.459 374.218H417.839C417.839 373.098 417.592 372.191 417.099 371.498C416.619 370.805 415.879 370.458 414.879 370.458ZM428.774 370.678H425.214V380.338H424.074V370.678H420.534V369.698H428.774V370.678Z" fill="#01457A"/>
<rect x="476.948" y="184.338" width="51" height="170" fill="#78B3DB"/>
<rect x="536.948" y="222.338" width="51" height="132" fill="#BCD77E"/>
<path d="M494.22 371.698C495.66 371.698 496.8 372.065 497.64 372.798C498.493 373.518 498.92 374.545 498.92 375.878C498.92 377.331 498.453 378.471 497.52 379.298C496.586 380.125 495.326 380.538 493.74 380.538C492.98 380.538 492.286 380.465 491.66 380.318C491.046 380.171 490.526 379.971 490.1 379.718V378.598C490.553 378.878 491.1 379.105 491.74 379.278C492.393 379.451 493.06 379.538 493.74 379.538C494.94 379.538 495.906 379.238 496.64 378.638C497.386 378.025 497.76 377.138 497.76 375.978C497.76 374.938 497.44 374.131 496.8 373.558C496.173 372.971 495.213 372.678 493.92 372.678C493.426 372.678 492.933 372.718 492.44 372.798C491.96 372.878 491.526 372.965 491.14 373.058L490.5 372.638L491.08 366.058H498V367.098H492.06L491.64 371.998C491.92 371.945 492.273 371.885 492.7 371.818C493.126 371.738 493.633 371.698 494.22 371.698ZM505.646 371.698C507.086 371.698 508.226 372.065 509.066 372.798C509.919 373.518 510.346 374.545 510.346 375.878C510.346 377.331 509.879 378.471 508.946 379.298C508.012 380.125 506.752 380.538 505.166 380.538C504.406 380.538 503.712 380.465 503.086 380.318C502.472 380.171 501.952 379.971 501.526 379.718V378.598C501.979 378.878 502.526 379.105 503.166 379.278C503.819 379.451 504.486 379.538 505.166 379.538C506.366 379.538 507.332 379.238 508.066 378.638C508.812 378.025 509.186 377.138 509.186 375.978C509.186 374.938 508.866 374.131 508.226 373.558C507.599 372.971 506.639 372.678 505.346 372.678C504.852 372.678 504.359 372.718 503.866 372.798C503.386 372.878 502.952 372.965 502.566 373.058L501.926 372.638L502.506 366.058H509.426V367.098H503.486L503.066 371.998C503.346 371.945 503.699 371.885 504.126 371.818C504.552 371.738 505.059 371.698 505.646 371.698ZM512.371 375.458V374.418H517.211V375.458H512.371ZM523.517 371.698C524.957 371.698 526.097 372.065 526.937 372.798C527.79 373.518 528.217 374.545 528.217 375.878C528.217 377.331 527.75 378.471 526.817 379.298C525.883 380.125 524.623 380.538 523.037 380.538C522.277 380.538 521.583 380.465 520.957 380.318C520.343 380.171 519.823 379.971 519.397 379.718V378.598C519.85 378.878 520.397 379.105 521.037 379.278C521.69 379.451 522.357 379.538 523.037 379.538C524.237 379.538 525.203 379.238 525.937 378.638C526.683 378.025 527.057 377.138 527.057 375.978C527.057 374.938 526.737 374.131 526.097 373.558C525.47 372.971 524.51 372.678 523.217 372.678C522.723 372.678 522.23 372.718 521.737 372.798C521.257 372.878 520.823 372.965 520.437 373.058L519.797 372.638L520.377 366.058H527.297V367.098H521.357L520.937 371.998C521.217 371.945 521.57 371.885 521.997 371.818C522.423 371.738 522.93 371.698 523.517 371.698ZM539.642 372.118C539.642 373.825 539.422 375.311 538.982 376.578C538.556 377.831 537.882 378.811 536.962 379.518C536.042 380.211 534.849 380.558 533.382 380.558C533.049 380.558 532.696 380.538 532.322 380.498C531.949 380.458 531.642 380.398 531.402 380.318V379.298C531.642 379.378 531.936 379.445 532.282 379.498C532.642 379.551 533.002 379.578 533.362 379.578C535.069 379.578 536.336 378.998 537.162 377.838C538.002 376.678 538.449 375.031 538.502 372.898H538.422C538.142 373.418 537.689 373.885 537.062 374.298C536.436 374.711 535.622 374.918 534.622 374.918C533.342 374.918 532.336 374.538 531.602 373.778C530.869 373.005 530.502 371.945 530.502 370.598C530.502 369.158 530.896 368.011 531.682 367.158C532.469 366.291 533.549 365.858 534.922 365.858C535.949 365.858 536.809 366.125 537.502 366.658C538.209 367.191 538.742 367.931 539.102 368.878C539.462 369.811 539.642 370.891 539.642 372.118ZM534.922 366.838C533.896 366.838 533.089 367.165 532.502 367.818C531.929 368.458 531.642 369.378 531.642 370.578C531.642 371.631 531.902 372.465 532.422 373.078C532.942 373.678 533.742 373.978 534.822 373.978C535.569 373.978 536.209 373.831 536.742 373.538C537.289 373.231 537.709 372.858 538.002 372.418C538.296 371.965 538.442 371.518 538.442 371.078C538.442 370.678 538.376 370.238 538.242 369.758C538.122 369.265 537.929 368.798 537.662 368.358C537.396 367.918 537.036 367.558 536.582 367.278C536.129 366.985 535.576 366.838 534.922 366.838ZM555.343 380.338H554.183V370.678H550.583C550.423 372.918 550.21 374.758 549.943 376.198C549.677 377.638 549.303 378.705 548.823 379.398C548.357 380.091 547.737 380.438 546.963 380.438C546.63 380.438 546.37 380.405 546.183 380.338V379.438C546.317 379.478 546.517 379.498 546.783 379.498C547.597 379.498 548.21 378.705 548.623 377.118C549.037 375.531 549.357 373.058 549.583 369.698H555.343V380.338ZM562.899 369.498C563.805 369.498 564.559 369.711 565.159 370.138C565.772 370.551 566.232 371.125 566.539 371.858C566.859 372.591 567.019 373.431 567.019 374.378V375.158H559.419C559.419 376.571 559.745 377.658 560.399 378.418C561.065 379.165 562.012 379.538 563.239 379.538C563.892 379.538 564.465 379.485 564.959 379.378C565.452 379.258 565.992 379.071 566.579 378.818V379.858C566.045 380.098 565.519 380.271 564.999 380.378C564.479 380.485 563.879 380.538 563.199 380.538C561.599 380.538 560.372 380.051 559.519 379.078C558.665 378.105 558.239 376.778 558.239 375.098C558.239 374.018 558.419 373.058 558.779 372.218C559.152 371.378 559.685 370.718 560.379 370.238C561.072 369.745 561.912 369.498 562.899 369.498ZM562.879 370.458C561.905 370.458 561.112 370.785 560.499 371.438C559.899 372.091 559.552 373.018 559.459 374.218H565.839C565.839 373.098 565.592 372.191 565.099 371.498C564.619 370.805 563.879 370.458 562.879 370.458ZM576.774 370.678H573.214V380.338H572.074V370.678H568.534V369.698H576.774V370.678Z" fill="#01457A"/>
<rect x="624.948" y="128.338" width="51" height="226" fill="#78B3DB"/>
<rect x="684.948" y="118.338" width="51" height="236" fill="#BCD77E"/>
<path d="M637.96 374.258C637.96 372.551 638.173 371.071 638.6 369.818C639.026 368.551 639.7 367.571 640.62 366.878C641.553 366.185 642.753 365.838 644.22 365.838C644.94 365.838 645.56 365.911 646.08 366.058V367.078C645.56 366.891 644.946 366.798 644.24 366.798C642.52 366.798 641.246 367.378 640.42 368.538C639.593 369.698 639.146 371.345 639.08 373.478H639.16C639.44 372.971 639.886 372.511 640.5 372.098C641.126 371.685 641.94 371.478 642.94 371.478C644.22 371.478 645.233 371.865 645.98 372.638C646.726 373.398 647.1 374.445 647.1 375.778C647.1 377.218 646.706 378.371 645.92 379.238C645.146 380.105 644.073 380.538 642.7 380.538C641.673 380.538 640.806 380.271 640.1 379.738C639.393 379.191 638.86 378.451 638.5 377.518C638.14 376.571 637.96 375.485 637.96 374.258ZM642.68 379.538C643.706 379.538 644.506 379.218 645.08 378.578C645.666 377.938 645.96 377.005 645.96 375.778C645.96 374.738 645.693 373.918 645.16 373.318C644.626 372.718 643.826 372.418 642.76 372.418C642.026 372.418 641.386 372.571 640.84 372.878C640.306 373.171 639.893 373.538 639.6 373.978C639.306 374.418 639.16 374.851 639.16 375.278C639.16 375.705 639.22 376.165 639.34 376.658C639.46 377.138 639.653 377.598 639.92 378.038C640.2 378.478 640.566 378.838 641.02 379.118C641.473 379.398 642.026 379.538 642.68 379.538ZM658.446 373.158C658.446 375.531 658.079 377.358 657.346 378.638C656.612 379.905 655.446 380.538 653.846 380.538C652.339 380.538 651.199 379.911 650.426 378.658C649.652 377.405 649.266 375.571 649.266 373.158C649.266 371.691 649.412 370.411 649.706 369.318C649.999 368.225 650.486 367.371 651.166 366.758C651.846 366.145 652.746 365.838 653.866 365.838C654.959 365.838 655.839 366.138 656.506 366.738C657.186 367.338 657.679 368.185 657.986 369.278C658.292 370.371 658.446 371.665 658.446 373.158ZM650.406 373.158C650.406 375.318 650.679 376.925 651.226 377.978C651.786 379.018 652.659 379.538 653.846 379.538C655.072 379.538 655.952 379.011 656.486 377.958C657.019 376.905 657.286 375.305 657.286 373.158C657.286 371.825 657.179 370.691 656.966 369.758C656.766 368.811 656.412 368.091 655.906 367.598C655.412 367.091 654.732 366.838 653.866 366.838C652.999 366.838 652.312 367.091 651.806 367.598C651.312 368.105 650.952 368.831 650.726 369.778C650.512 370.725 650.406 371.851 650.406 373.158ZM660.371 375.458V374.418H665.211V375.458H660.371ZM667.257 374.258C667.257 372.551 667.47 371.071 667.897 369.818C668.323 368.551 668.997 367.571 669.917 366.878C670.85 366.185 672.05 365.838 673.517 365.838C674.237 365.838 674.857 365.911 675.377 366.058V367.078C674.857 366.891 674.243 366.798 673.537 366.798C671.817 366.798 670.543 367.378 669.717 368.538C668.89 369.698 668.443 371.345 668.377 373.478H668.457C668.737 372.971 669.183 372.511 669.797 372.098C670.423 371.685 671.237 371.478 672.237 371.478C673.517 371.478 674.53 371.865 675.277 372.638C676.023 373.398 676.397 374.445 676.397 375.778C676.397 377.218 676.003 378.371 675.217 379.238C674.443 380.105 673.37 380.538 671.997 380.538C670.97 380.538 670.103 380.271 669.397 379.738C668.69 379.191 668.157 378.451 667.797 377.518C667.437 376.571 667.257 375.485 667.257 374.258ZM671.977 379.538C673.003 379.538 673.803 379.218 674.377 378.578C674.963 377.938 675.257 377.005 675.257 375.778C675.257 374.738 674.99 373.918 674.457 373.318C673.923 372.718 673.123 372.418 672.057 372.418C671.323 372.418 670.683 372.571 670.137 372.878C669.603 373.171 669.19 373.538 668.897 373.978C668.603 374.418 668.457 374.851 668.457 375.278C668.457 375.705 668.517 376.165 668.637 376.658C668.757 377.138 668.95 377.598 669.217 378.038C669.497 378.478 669.863 378.838 670.317 379.118C670.77 379.398 671.323 379.538 671.977 379.538ZM688.562 376.778H686.182V380.338H685.082V376.778H677.902V375.838L685.002 365.978H686.182V375.738H688.562V376.778ZM685.082 370.438C685.082 369.918 685.082 369.478 685.082 369.118C685.082 368.758 685.089 368.438 685.102 368.158C685.116 367.865 685.129 367.558 685.142 367.238H685.082C684.909 367.545 684.742 367.831 684.582 368.098C684.422 368.365 684.229 368.651 684.002 368.958L679.122 375.738H685.082V370.438ZM703.343 380.338H702.183V370.678H698.583C698.423 372.918 698.21 374.758 697.943 376.198C697.677 377.638 697.303 378.705 696.823 379.398C696.357 380.091 695.737 380.438 694.963 380.438C694.63 380.438 694.37 380.405 694.183 380.338V379.438C694.317 379.478 694.517 379.498 694.783 379.498C695.597 379.498 696.21 378.705 696.623 377.118C697.037 375.531 697.357 373.058 697.583 369.698H703.343V380.338ZM710.899 369.498C711.805 369.498 712.559 369.711 713.159 370.138C713.772 370.551 714.232 371.125 714.539 371.858C714.859 372.591 715.019 373.431 715.019 374.378V375.158H707.419C707.419 376.571 707.745 377.658 708.399 378.418C709.065 379.165 710.012 379.538 711.239 379.538C711.892 379.538 712.465 379.485 712.959 379.378C713.452 379.258 713.992 379.071 714.579 378.818V379.858C714.045 380.098 713.519 380.271 712.999 380.378C712.479 380.485 711.879 380.538 711.199 380.538C709.599 380.538 708.372 380.051 707.519 379.078C706.665 378.105 706.239 376.778 706.239 375.098C706.239 374.018 706.419 373.058 706.779 372.218C707.152 371.378 707.685 370.718 708.379 370.238C709.072 369.745 709.912 369.498 710.899 369.498ZM710.879 370.458C709.905 370.458 709.112 370.785 708.499 371.438C707.899 372.091 707.552 373.018 707.459 374.218H713.839C713.839 373.098 713.592 372.191 713.099 371.498C712.619 370.805 711.879 370.458 710.879 370.458ZM724.774 370.678H721.214V380.338H720.074V370.678H716.534V369.698H724.774V370.678Z" fill="#01457A"/>
<rect x="920.948" y="36.3379" width="51" height="318" fill="#78B3DB"/>
<rect x="980.948" y="151.338" width="51" height="203" fill="#BCD77E"/>
<path d="M935.92 380.338L941.82 367.098H933.74V366.058H943.06V366.898L937.18 380.338H935.92ZM954.446 373.158C954.446 375.531 954.079 377.358 953.346 378.638C952.612 379.905 951.446 380.538 949.846 380.538C948.339 380.538 947.199 379.911 946.426 378.658C945.652 377.405 945.266 375.571 945.266 373.158C945.266 371.691 945.412 370.411 945.706 369.318C945.999 368.225 946.486 367.371 947.166 366.758C947.846 366.145 948.746 365.838 949.866 365.838C950.959 365.838 951.839 366.138 952.506 366.738C953.186 367.338 953.679 368.185 953.986 369.278C954.292 370.371 954.446 371.665 954.446 373.158ZM946.406 373.158C946.406 375.318 946.679 376.925 947.226 377.978C947.786 379.018 948.659 379.538 949.846 379.538C951.072 379.538 951.952 379.011 952.486 377.958C953.019 376.905 953.286 375.305 953.286 373.158C953.286 371.825 953.179 370.691 952.966 369.758C952.766 368.811 952.412 368.091 951.906 367.598C951.412 367.091 950.732 366.838 949.866 366.838C948.999 366.838 948.312 367.091 947.806 367.598C947.312 368.105 946.952 368.831 946.726 369.778C946.512 370.725 946.406 371.851 946.406 373.158ZM956.371 375.458V374.418H961.211V375.458H956.371ZM965.217 380.338L971.117 367.098H963.037V366.058H972.357V366.898L966.477 380.338H965.217ZM984.562 376.778H982.182V380.338H981.082V376.778H973.902V375.838L981.002 365.978H982.182V375.738H984.562V376.778ZM981.082 370.438C981.082 369.918 981.082 369.478 981.082 369.118C981.082 368.758 981.089 368.438 981.102 368.158C981.116 367.865 981.129 367.558 981.142 367.238H981.082C980.909 367.545 980.742 367.831 980.582 368.098C980.422 368.365 980.229 368.651 980.002 368.958L975.122 375.738H981.082V370.438ZM999.343 380.338H998.183V370.678H994.583C994.423 372.918 994.21 374.758 993.943 376.198C993.677 377.638 993.303 378.705 992.823 379.398C992.357 380.091 991.737 380.438 990.963 380.438C990.63 380.438 990.37 380.405 990.183 380.338V379.438C990.317 379.478 990.517 379.498 990.783 379.498C991.597 379.498 992.21 378.705 992.623 377.118C993.037 375.531 993.357 373.058 993.583 369.698H999.343V380.338ZM1006.9 369.498C1007.81 369.498 1008.56 369.711 1009.16 370.138C1009.77 370.551 1010.23 371.125 1010.54 371.858C1010.86 372.591 1011.02 373.431 1011.02 374.378V375.158H1003.42C1003.42 376.571 1003.75 377.658 1004.4 378.418C1005.07 379.165 1006.01 379.538 1007.24 379.538C1007.89 379.538 1008.47 379.485 1008.96 379.378C1009.45 379.258 1009.99 379.071 1010.58 378.818V379.858C1010.05 380.098 1009.52 380.271 1009 380.378C1008.48 380.485 1007.88 380.538 1007.2 380.538C1005.6 380.538 1004.37 380.051 1003.52 379.078C1002.67 378.105 1002.24 376.778 1002.24 375.098C1002.24 374.018 1002.42 373.058 1002.78 372.218C1003.15 371.378 1003.69 370.718 1004.38 370.238C1005.07 369.745 1005.91 369.498 1006.9 369.498ZM1006.88 370.458C1005.91 370.458 1005.11 370.785 1004.5 371.438C1003.9 372.091 1003.55 373.018 1003.46 374.218H1009.84C1009.84 373.098 1009.59 372.191 1009.1 371.498C1008.62 370.805 1007.88 370.458 1006.88 370.458ZM1020.77 370.678H1017.21V380.338H1016.07V370.678H1012.53V369.698H1020.77V370.678Z" fill="#01457A"/>
<rect x="772.948" y="72.3379" width="51" height="282" fill="#78B3DB"/>
<rect x="832.948" y="118.338" width="51" height="236" fill="#BCD77E"/>
<path d="M785.96 374.258C785.96 372.551 786.173 371.071 786.6 369.818C787.026 368.551 787.7 367.571 788.62 366.878C789.553 366.185 790.753 365.838 792.22 365.838C792.94 365.838 793.56 365.911 794.08 366.058V367.078C793.56 366.891 792.946 366.798 792.24 366.798C790.52 366.798 789.246 367.378 788.42 368.538C787.593 369.698 787.146 371.345 787.08 373.478H787.16C787.44 372.971 787.886 372.511 788.5 372.098C789.126 371.685 789.94 371.478 790.94 371.478C792.22 371.478 793.233 371.865 793.98 372.638C794.726 373.398 795.1 374.445 795.1 375.778C795.1 377.218 794.706 378.371 793.92 379.238C793.146 380.105 792.073 380.538 790.7 380.538C789.673 380.538 788.806 380.271 788.1 379.738C787.393 379.191 786.86 378.451 786.5 377.518C786.14 376.571 785.96 375.485 785.96 374.258ZM790.68 379.538C791.706 379.538 792.506 379.218 793.08 378.578C793.666 377.938 793.96 377.005 793.96 375.778C793.96 374.738 793.693 373.918 793.16 373.318C792.626 372.718 791.826 372.418 790.76 372.418C790.026 372.418 789.386 372.571 788.84 372.878C788.306 373.171 787.893 373.538 787.6 373.978C787.306 374.418 787.16 374.851 787.16 375.278C787.16 375.705 787.22 376.165 787.34 376.658C787.46 377.138 787.653 377.598 787.92 378.038C788.2 378.478 788.566 378.838 789.02 379.118C789.473 379.398 790.026 379.538 790.68 379.538ZM801.646 371.698C803.086 371.698 804.226 372.065 805.066 372.798C805.919 373.518 806.346 374.545 806.346 375.878C806.346 377.331 805.879 378.471 804.946 379.298C804.012 380.125 802.752 380.538 801.166 380.538C800.406 380.538 799.712 380.465 799.086 380.318C798.472 380.171 797.952 379.971 797.526 379.718V378.598C797.979 378.878 798.526 379.105 799.166 379.278C799.819 379.451 800.486 379.538 801.166 379.538C802.366 379.538 803.332 379.238 804.066 378.638C804.812 378.025 805.186 377.138 805.186 375.978C805.186 374.938 804.866 374.131 804.226 373.558C803.599 372.971 802.639 372.678 801.346 372.678C800.852 372.678 800.359 372.718 799.866 372.798C799.386 372.878 798.952 372.965 798.566 373.058L797.926 372.638L798.506 366.058H805.426V367.098H799.486L799.066 371.998C799.346 371.945 799.699 371.885 800.126 371.818C800.552 371.738 801.059 371.698 801.646 371.698ZM808.371 375.458V374.418H813.211V375.458H808.371ZM815.257 374.258C815.257 372.551 815.47 371.071 815.897 369.818C816.323 368.551 816.997 367.571 817.917 366.878C818.85 366.185 820.05 365.838 821.517 365.838C822.237 365.838 822.857 365.911 823.377 366.058V367.078C822.857 366.891 822.243 366.798 821.537 366.798C819.817 366.798 818.543 367.378 817.717 368.538C816.89 369.698 816.443 371.345 816.377 373.478H816.457C816.737 372.971 817.183 372.511 817.797 372.098C818.423 371.685 819.237 371.478 820.237 371.478C821.517 371.478 822.53 371.865 823.277 372.638C824.023 373.398 824.397 374.445 824.397 375.778C824.397 377.218 824.003 378.371 823.217 379.238C822.443 380.105 821.37 380.538 819.997 380.538C818.97 380.538 818.103 380.271 817.397 379.738C816.69 379.191 816.157 378.451 815.797 377.518C815.437 376.571 815.257 375.485 815.257 374.258ZM819.977 379.538C821.003 379.538 821.803 379.218 822.377 378.578C822.963 377.938 823.257 377.005 823.257 375.778C823.257 374.738 822.99 373.918 822.457 373.318C821.923 372.718 821.123 372.418 820.057 372.418C819.323 372.418 818.683 372.571 818.137 372.878C817.603 373.171 817.19 373.538 816.897 373.978C816.603 374.418 816.457 374.851 816.457 375.278C816.457 375.705 816.517 376.165 816.637 376.658C816.757 377.138 816.95 377.598 817.217 378.038C817.497 378.478 817.863 378.838 818.317 379.118C818.77 379.398 819.323 379.538 819.977 379.538ZM835.642 372.118C835.642 373.825 835.422 375.311 834.982 376.578C834.556 377.831 833.882 378.811 832.962 379.518C832.042 380.211 830.849 380.558 829.382 380.558C829.049 380.558 828.696 380.538 828.322 380.498C827.949 380.458 827.642 380.398 827.402 380.318V379.298C827.642 379.378 827.936 379.445 828.282 379.498C828.642 379.551 829.002 379.578 829.362 379.578C831.069 379.578 832.336 378.998 833.162 377.838C834.002 376.678 834.449 375.031 834.502 372.898H834.422C834.142 373.418 833.689 373.885 833.062 374.298C832.436 374.711 831.622 374.918 830.622 374.918C829.342 374.918 828.336 374.538 827.602 373.778C826.869 373.005 826.502 371.945 826.502 370.598C826.502 369.158 826.896 368.011 827.682 367.158C828.469 366.291 829.549 365.858 830.922 365.858C831.949 365.858 832.809 366.125 833.502 366.658C834.209 367.191 834.742 367.931 835.102 368.878C835.462 369.811 835.642 370.891 835.642 372.118ZM830.922 366.838C829.896 366.838 829.089 367.165 828.502 367.818C827.929 368.458 827.642 369.378 827.642 370.578C827.642 371.631 827.902 372.465 828.422 373.078C828.942 373.678 829.742 373.978 830.822 373.978C831.569 373.978 832.209 373.831 832.742 373.538C833.289 373.231 833.709 372.858 834.002 372.418C834.296 371.965 834.442 371.518 834.442 371.078C834.442 370.678 834.376 370.238 834.242 369.758C834.122 369.265 833.929 368.798 833.662 368.358C833.396 367.918 833.036 367.558 832.582 367.278C832.129 366.985 831.576 366.838 830.922 366.838ZM851.343 380.338H850.183V370.678H846.583C846.423 372.918 846.21 374.758 845.943 376.198C845.677 377.638 845.303 378.705 844.823 379.398C844.357 380.091 843.737 380.438 842.963 380.438C842.63 380.438 842.37 380.405 842.183 380.338V379.438C842.317 379.478 842.517 379.498 842.783 379.498C843.597 379.498 844.21 378.705 844.623 377.118C845.037 375.531 845.357 373.058 845.583 369.698H851.343V380.338ZM858.899 369.498C859.805 369.498 860.559 369.711 861.159 370.138C861.772 370.551 862.232 371.125 862.539 371.858C862.859 372.591 863.019 373.431 863.019 374.378V375.158H855.419C855.419 376.571 855.745 377.658 856.399 378.418C857.065 379.165 858.012 379.538 859.239 379.538C859.892 379.538 860.465 379.485 860.959 379.378C861.452 379.258 861.992 379.071 862.579 378.818V379.858C862.045 380.098 861.519 380.271 860.999 380.378C860.479 380.485 859.879 380.538 859.199 380.538C857.599 380.538 856.372 380.051 855.519 379.078C854.665 378.105 854.239 376.778 854.239 375.098C854.239 374.018 854.419 373.058 854.779 372.218C855.152 371.378 855.685 370.718 856.379 370.238C857.072 369.745 857.912 369.498 858.899 369.498ZM858.879 370.458C857.905 370.458 857.112 370.785 856.499 371.438C855.899 372.091 855.552 373.018 855.459 374.218H861.839C861.839 373.098 861.592 372.191 861.099 371.498C860.619 370.805 859.879 370.458 858.879 370.458ZM872.774 370.678H869.214V380.338H868.074V370.678H864.534V369.698H872.774V370.678Z" fill="#01457A"/>
<rect x="1068.95" y="253.338" width="51" height="101" fill="#78B3DB"/>
<rect x="1128.95" y="222.338" width="51" height="132" fill="#BCD77E"/>
<path d="M1083.92 380.338L1089.82 367.098H1081.74V366.058H1091.06V366.898L1085.18 380.338H1083.92ZM1097.65 371.698C1099.09 371.698 1100.23 372.065 1101.07 372.798C1101.92 373.518 1102.35 374.545 1102.35 375.878C1102.35 377.331 1101.88 378.471 1100.95 379.298C1100.01 380.125 1098.75 380.538 1097.17 380.538C1096.41 380.538 1095.71 380.465 1095.09 380.318C1094.47 380.171 1093.95 379.971 1093.53 379.718V378.598C1093.98 378.878 1094.53 379.105 1095.17 379.278C1095.82 379.451 1096.49 379.538 1097.17 379.538C1098.37 379.538 1099.33 379.238 1100.07 378.638C1100.81 378.025 1101.19 377.138 1101.19 375.978C1101.19 374.938 1100.87 374.131 1100.23 373.558C1099.6 372.971 1098.64 372.678 1097.35 372.678C1096.85 372.678 1096.36 372.718 1095.87 372.798C1095.39 372.878 1094.95 372.965 1094.57 373.058L1093.93 372.638L1094.51 366.058H1101.43V367.098H1095.49L1095.07 371.998C1095.35 371.945 1095.7 371.885 1096.13 371.818C1096.55 371.738 1097.06 371.698 1097.65 371.698ZM1104.37 375.458V374.418H1109.21V375.458H1104.37ZM1115.7 365.858C1116.92 365.858 1117.91 366.151 1118.66 366.738C1119.42 367.311 1119.8 368.131 1119.8 369.198C1119.8 370.065 1119.51 370.778 1118.94 371.338C1118.38 371.885 1117.66 372.351 1116.8 372.738C1117.82 373.151 1118.66 373.665 1119.3 374.278C1119.95 374.878 1120.28 375.678 1120.28 376.678C1120.28 377.491 1120.08 378.185 1119.68 378.758C1119.29 379.331 1118.75 379.771 1118.06 380.078C1117.36 380.385 1116.58 380.538 1115.7 380.538C1114.3 380.538 1113.19 380.198 1112.38 379.518C1111.56 378.838 1111.16 377.918 1111.16 376.758C1111.16 375.731 1111.47 374.911 1112.1 374.298C1112.74 373.671 1113.54 373.171 1114.5 372.798C1113.96 372.545 1113.48 372.265 1113.04 371.958C1112.6 371.638 1112.25 371.258 1112 370.818C1111.74 370.365 1111.62 369.825 1111.62 369.198C1111.62 368.505 1111.79 367.911 1112.14 367.418C1112.48 366.911 1112.96 366.525 1113.58 366.258C1114.2 365.991 1114.91 365.858 1115.7 365.858ZM1115.7 366.818C1114.83 366.818 1114.12 367.031 1113.56 367.458C1113.01 367.871 1112.74 368.465 1112.74 369.238C1112.74 370.038 1113.02 370.665 1113.58 371.118C1114.15 371.558 1114.88 371.945 1115.78 372.278C1116.67 371.905 1117.37 371.491 1117.88 371.038C1118.4 370.585 1118.66 369.978 1118.66 369.218C1118.66 368.431 1118.39 367.838 1117.86 367.438C1117.32 367.025 1116.6 366.818 1115.7 366.818ZM1112.28 376.778C1112.28 377.618 1112.57 378.298 1113.16 378.818C1113.76 379.325 1114.6 379.578 1115.68 379.578C1116.73 379.578 1117.57 379.325 1118.2 378.818C1118.82 378.311 1119.14 377.598 1119.14 376.678C1119.14 375.905 1118.86 375.265 1118.3 374.758C1117.75 374.251 1116.98 373.811 1115.98 373.438L1115.54 373.278C1114.56 373.651 1113.78 374.105 1113.18 374.638C1112.58 375.158 1112.28 375.871 1112.28 376.778ZM1131.74 373.158C1131.74 375.531 1131.38 377.358 1130.64 378.638C1129.91 379.905 1128.74 380.538 1127.14 380.538C1125.64 380.538 1124.5 379.911 1123.72 378.658C1122.95 377.405 1122.56 375.571 1122.56 373.158C1122.56 371.691 1122.71 370.411 1123 369.318C1123.3 368.225 1123.78 367.371 1124.46 366.758C1125.14 366.145 1126.04 365.838 1127.16 365.838C1128.26 365.838 1129.14 366.138 1129.8 366.738C1130.48 367.338 1130.98 368.185 1131.28 369.278C1131.59 370.371 1131.74 371.665 1131.74 373.158ZM1123.7 373.158C1123.7 375.318 1123.98 376.925 1124.52 377.978C1125.08 379.018 1125.96 379.538 1127.14 379.538C1128.37 379.538 1129.25 379.011 1129.78 377.958C1130.32 376.905 1130.58 375.305 1130.58 373.158C1130.58 371.825 1130.48 370.691 1130.26 369.758C1130.06 368.811 1129.71 368.091 1129.2 367.598C1128.71 367.091 1128.03 366.838 1127.16 366.838C1126.3 366.838 1125.61 367.091 1125.1 367.598C1124.61 368.105 1124.25 368.831 1124.02 369.778C1123.81 370.725 1123.7 371.851 1123.7 373.158ZM1147.34 380.338H1146.18V370.678H1142.58C1142.42 372.918 1142.21 374.758 1141.94 376.198C1141.68 377.638 1141.3 378.705 1140.82 379.398C1140.36 380.091 1139.74 380.438 1138.96 380.438C1138.63 380.438 1138.37 380.405 1138.18 380.338V379.438C1138.32 379.478 1138.52 379.498 1138.78 379.498C1139.6 379.498 1140.21 378.705 1140.62 377.118C1141.04 375.531 1141.36 373.058 1141.58 369.698H1147.34V380.338ZM1154.9 369.498C1155.81 369.498 1156.56 369.711 1157.16 370.138C1157.77 370.551 1158.23 371.125 1158.54 371.858C1158.86 372.591 1159.02 373.431 1159.02 374.378V375.158H1151.42C1151.42 376.571 1151.75 377.658 1152.4 378.418C1153.07 379.165 1154.01 379.538 1155.24 379.538C1155.89 379.538 1156.47 379.485 1156.96 379.378C1157.45 379.258 1157.99 379.071 1158.58 378.818V379.858C1158.05 380.098 1157.52 380.271 1157 380.378C1156.48 380.485 1155.88 380.538 1155.2 380.538C1153.6 380.538 1152.37 380.051 1151.52 379.078C1150.67 378.105 1150.24 376.778 1150.24 375.098C1150.24 374.018 1150.42 373.058 1150.78 372.218C1151.15 371.378 1151.69 370.718 1152.38 370.238C1153.07 369.745 1153.91 369.498 1154.9 369.498ZM1154.88 370.458C1153.91 370.458 1153.11 370.785 1152.5 371.438C1151.9 372.091 1151.55 373.018 1151.46 374.218H1157.84C1157.84 373.098 1157.59 372.191 1157.1 371.498C1156.62 370.805 1155.88 370.458 1154.88 370.458ZM1168.77 370.678H1165.21V380.338H1164.07V370.678H1160.53V369.698H1168.77V370.678Z" fill="#01457A"/>
<path d="M98.2482 346.817C98.2482 349.19 97.8816 351.017 97.1482 352.297C96.4149 353.564 95.2482 354.197 93.6482 354.197C92.1416 354.197 91.0016 353.57 90.2282 352.317C89.4549 351.064 89.0682 349.23 89.0682 346.817C89.0682 345.35 89.2149 344.07 89.5082 342.977C89.8016 341.884 90.2882 341.03 90.9682 340.417C91.6482 339.804 92.5482 339.497 93.6682 339.497C94.7616 339.497 95.6416 339.797 96.3082 340.397C96.9882 340.997 97.4816 341.844 97.7882 342.937C98.0949 344.03 98.2482 345.324 98.2482 346.817ZM90.2082 346.817C90.2082 348.977 90.4816 350.584 91.0282 351.637C91.5882 352.677 92.4616 353.197 93.6482 353.197C94.8749 353.197 95.7549 352.67 96.2882 351.617C96.8216 350.564 97.0882 348.964 97.0882 346.817C97.0882 345.484 96.9816 344.35 96.7682 343.417C96.5682 342.47 96.2149 341.75 95.7082 341.257C95.2149 340.75 94.5349 340.497 93.6682 340.497C92.8016 340.497 92.1149 340.75 91.6082 341.257C91.1149 341.764 90.7549 342.49 90.5282 343.437C90.3149 344.384 90.2082 345.51 90.2082 346.817ZM102.554 351.897C102.381 352.63 102.161 353.417 101.894 354.257C101.627 355.097 101.341 355.87 101.034 356.577H100.174C100.654 354.804 101.007 353.17 101.234 351.677H102.454L102.554 351.897ZM114.186 346.817C114.186 349.19 113.819 351.017 113.086 352.297C112.352 353.564 111.186 354.197 109.586 354.197C108.079 354.197 106.939 353.57 106.166 352.317C105.392 351.064 105.006 349.23 105.006 346.817C105.006 345.35 105.152 344.07 105.446 342.977C105.739 341.884 106.226 341.03 106.906 340.417C107.586 339.804 108.486 339.497 109.606 339.497C110.699 339.497 111.579 339.797 112.246 340.397C112.926 340.997 113.419 341.844 113.726 342.937C114.032 344.03 114.186 345.324 114.186 346.817ZM106.146 346.817C106.146 348.977 106.419 350.584 106.966 351.637C107.526 352.677 108.399 353.197 109.586 353.197C110.812 353.197 111.692 352.67 112.226 351.617C112.759 350.564 113.026 348.964 113.026 346.817C113.026 345.484 112.919 344.35 112.706 343.417C112.506 342.47 112.152 341.75 111.646 341.257C111.152 340.75 110.472 340.497 109.606 340.497C108.739 340.497 108.052 340.75 107.546 341.257C107.052 341.764 106.692 342.49 106.466 343.437C106.252 344.384 106.146 345.51 106.146 346.817Z" fill="#01457A"/>
</svg>
