<svg width="126" height="107" viewBox="0 0 126 107" fill="none" xmlns="http://www.w3.org/2000/svg">
<path d="M56.9173 75.3008V97.4364H52.0424C50.8565 97.4364 49.8027 96.3821 49.8027 95.3283V77.5408C49.8027 76.3549 50.857 75.3011 52.0424 75.3011L56.9173 75.3008Z" fill="#01457A"/>
<path d="M121.743 6.25849L121.348 9.81577L99.3438 7.18058L99.7392 3.6233C99.8709 1.9102 101.452 0.856459 103.033 0.988108L119.24 2.9645C120.82 3.22784 122.006 4.67759 121.743 6.25849H121.743Z" fill="#01457A"/>
<path d="M125.828 19.566L117.659 88.3444C116.605 96.7771 109.622 102.97 101.189 102.97L66.0094 102.97C64.033 102.97 62.4521 101.389 62.4521 99.4129V73.4563C62.4521 71.4799 64.033 69.899 66.0094 69.899H80.7665L79.976 76.8825C79.8443 78.4633 80.8982 79.7809 82.4796 80.0448H82.875C84.3243 80.0448 85.3785 78.9905 85.6418 77.5412L93.0203 15.7461C93.2836 13.7697 94.9967 12.4521 96.9731 12.5838L122.93 15.6144C124.643 15.7457 126.092 17.5904 125.829 19.5668L125.828 19.566Z" fill="#01457A"/>
<path d="M5.26783 81.7568C7.90302 81.7568 9.87941 83.8649 9.87941 86.3684C9.87941 89.0036 7.77137 90.98 5.26783 90.98C2.63264 90.98 0.65625 88.872 0.65625 86.3684C0.65625 83.8649 2.76429 81.7568 5.26783 81.7568Z" fill="#01457A"/>
<path d="M19.3665 82.8105C21.4745 82.8105 23.056 84.5236 23.056 86.5C23.056 88.6081 21.3429 90.1895 19.3665 90.1895C17.2584 90.1895 15.677 88.4764 15.677 86.5C15.5458 84.392 17.2583 82.8105 19.3665 82.8105Z" fill="#01457A"/>
<path d="M34.2554 86.5002C34.2554 88.0284 33.0167 89.2671 31.4885 89.2671C29.9603 89.2671 28.7217 88.0284 28.7217 86.5002C28.7217 84.972 29.9603 83.7334 31.4885 83.7334C33.0167 83.7334 34.2554 84.972 34.2554 86.5002Z" fill="#01457A"/>
<path d="M41.7656 84.6553C42.8199 84.6553 43.6104 85.4457 43.6104 86.5C43.6104 87.5543 42.8199 88.3448 41.7656 88.3448C40.7114 88.3448 39.9209 87.5543 39.9209 86.5C39.9213 85.4458 40.7118 84.6553 41.7656 84.6553Z" fill="#01457A"/>
<path d="M6.05814 75.8275C3.5546 75.1687 2.10536 72.6652 2.76416 70.1617C3.42296 67.6581 5.92649 66.2089 8.43003 66.8677C10.9336 67.5265 12.3828 70.1617 11.724 72.5335C11.1969 75.0366 8.56168 76.4863 6.05814 75.8275Z" fill="#01457A"/>
<path d="M19.8932 78.5947C17.9169 78.0675 16.7309 75.9595 17.2581 73.9831C17.7852 72.0067 19.8932 70.8208 21.8696 71.3479C23.846 71.8751 25.032 73.9831 24.5048 75.9595C23.9777 77.9359 21.8696 79.1218 19.8932 78.5947Z" fill="#01457A"/>
<path d="M31.8837 80.8342C30.4344 80.4388 29.5118 78.8578 29.9073 77.4086C30.3028 75.9594 31.8837 75.0367 33.3329 75.4322C34.7822 75.8277 35.7048 77.4086 35.3093 78.8578C34.9143 80.3071 33.3334 81.2297 31.8837 80.8342Z" fill="#01457A"/>
<path d="M42.0282 82.5472C40.974 82.2839 40.4473 81.2296 40.7106 80.3075C40.974 79.2533 42.0282 78.7266 42.9503 78.9899C44.0046 79.2533 44.5312 80.3075 44.2679 81.2296C44.0046 82.2835 42.9503 82.8105 42.0282 82.5472Z" fill="#01457A"/>
<path d="M6.05814 97.0405C8.56168 96.3817 11.0652 97.831 11.724 100.335C12.3828 102.838 10.9335 105.342 8.43003 106C5.92651 106.659 3.42295 105.21 2.76416 102.706C2.10536 100.335 3.55463 97.8311 6.05814 97.0405Z" fill="#01457A"/>
<path d="M19.8932 94.4055C21.8696 93.8784 23.9777 95.0643 24.5048 97.0407C25.032 99.0171 23.846 101.125 21.8696 101.652C19.8932 102.179 17.7852 100.993 17.2581 99.0171C16.7309 96.9091 17.9168 94.9327 19.8932 94.4055Z" fill="#01457A"/>
<path d="M31.8837 92.1656C33.3329 91.7701 34.9143 92.6927 35.3093 94.142C35.7048 95.5912 34.7822 97.1727 33.3329 97.5676C31.8837 97.9631 30.3022 97.0405 29.9073 95.5912C29.5122 94.0103 30.3027 92.561 31.8837 92.1656Z" fill="#01457A"/>
<path d="M42.0284 90.321C43.0827 90.0577 44.0048 90.5844 44.2681 91.6386C44.5314 92.6929 44.0048 93.615 42.9505 93.8783C41.8963 94.1416 40.9741 93.615 40.7108 92.5607C40.447 91.6386 40.9742 90.5843 42.0284 90.321Z" fill="#01457A"/>
</svg>
