<svg width="83" height="134" viewBox="0 0 83 134" fill="none" xmlns="http://www.w3.org/2000/svg">
<g clip-path="url(#clip0_448_151)">
<path fill-rule="evenodd" clip-rule="evenodd" d="M75.5188 81.8887C75.5211 81.895 75.5234 81.9014 75.5257 81.9069C75.9153 82.9442 76.743 83.5527 77.6207 83.5527C77.9342 83.5527 78.2547 83.4747 78.5629 83.3115C79.7372 82.6919 80.2444 81.1013 79.7195 79.6904C79.1954 78.2802 77.8627 77.6567 76.6869 78.2715C75.5103 78.8871 74.9977 80.4754 75.5188 81.8887Z" fill="#01457A"/>
<path fill-rule="evenodd" clip-rule="evenodd" d="M81.6612 89.4559C81.4698 88.0457 80.3293 87.0817 79.1151 87.3064C77.9016 87.5286 77.0731 88.8529 77.2653 90.2646C77.764 93.9386 77.9016 97.6843 77.6718 101.394C77.14 109.998 73.3973 117.849 67.4044 122.937L65.8988 124.214C62.9508 126.717 59.4633 128.039 55.812 128.039C54.4902 128.039 53.1683 127.86 51.8834 127.507L45.985 125.889C34.584 122.761 24.1852 115.41 16.7029 105.191C13.3775 100.647 11.8774 97.343 10.7254 93.9386C10.8176 93.5933 10.8506 93.2205 10.8068 92.8374C10.7953 92.7263 9.69942 81.5554 23.2569 74.384C32.5559 69.4662 36.9057 61.055 38.419 57.4291C48.6126 59.0639 52.1216 62.3981 52.3821 62.6598C52.9201 63.3227 53.6633 63.5363 54.4318 63.3346C54.617 63.2865 54.7999 63.2392 54.9828 63.195C62.1147 61.4554 69.4717 65.8695 72.4782 73.6864C72.98 74.991 74.2964 75.5751 75.4193 74.9926C76.5413 74.4093 77.0439 72.8801 76.5436 71.5755C74.8398 67.1496 71.9755 63.4221 68.4104 60.9462C68.4119 60.9375 68.415 60.9289 68.4181 60.9202C68.8669 59.2539 69.0936 57.5158 69.0936 55.7557C69.0936 55.4033 69.0813 55.0541 69.0636 54.7065H70.6083C71.8364 54.7065 72.8339 53.5486 72.8339 52.1203C72.8339 50.6913 71.8364 49.5341 70.6083 49.5341H68.0922C67.5197 47.8181 66.7212 46.233 65.7336 44.8315L66.7419 43.661C67.6111 42.6505 67.6111 41.0125 66.7419 40.002C65.8719 38.9931 64.4633 38.9931 63.5941 40.002L62.429 41.3562C60.6237 39.9642 58.5434 39.0175 56.3039 38.6518C59.2527 35.9103 63.1268 34.612 67.8486 34.7989C68.4511 34.8257 69.0367 34.5608 69.4717 34.0737C69.9051 33.5866 70.1503 32.9158 70.1503 32.215V22.3621C70.1503 21.0166 69.2627 19.8965 68.1076 19.7853C67.7464 19.7507 63.5787 19.3818 58.1591 20.1393C55.736 14.691 52.3245 10.6434 48.402 8.39692L49.9775 5.66411C50.6614 4.47703 50.3878 2.87061 49.3657 2.07606C48.3451 1.28152 46.9626 1.59839 46.2786 2.78547L44.023 6.69827C43.0616 6.49255 42.0817 6.38219 41.0895 6.38219C40.517 6.38219 39.9475 6.41924 39.3834 6.48939V3.37429C39.3834 1.94601 38.3866 0.788086 37.1578 0.788086C35.9281 0.788086 34.9314 1.94601 34.9314 3.37429V7.79787C32.8433 8.78553 30.8651 10.2777 29.0584 12.2538C27.7065 13.7325 26.49 15.4414 25.4233 17.3379C24.5887 15.4248 22.8787 14.1085 20.9098 14.1085H14.8677C12.078 14.1085 9.80928 16.7451 9.80928 19.9863V46.4245C8.68878 47.4359 7.60903 48.6214 6.57614 49.9905C1.69682 56.4572 0.725418 64.9315 0.769992 70.9016C0.820714 77.6544 2.22553 84.5389 4.44579 88.953C4.78163 89.9974 5.08365 91.0048 5.37646 91.9822C6.87277 96.967 8.28534 101.676 13.3122 108.542C21.4047 119.596 32.6443 127.544 44.9621 130.923L50.8597 132.542C52.4805 132.986 54.1467 133.212 55.812 133.212C60.4139 133.212 64.8099 131.544 68.5241 128.392L70.0289 127.115C77.0823 121.127 81.4867 111.889 82.1123 101.766C82.3659 97.6622 82.2137 93.5208 81.6612 89.4559ZM54.4987 58.0337C53.601 57.3077 52.0717 56.2743 49.6816 55.2378C49.866 52.7486 50.4877 48.0578 52.5781 43.8044C53.1191 43.7051 53.6725 43.6523 54.2243 43.6523C59.9682 43.6523 64.6416 49.0833 64.6416 55.7572C64.6416 56.7843 64.5293 57.7988 64.3119 58.7825C61.1525 57.5915 57.7687 57.3243 54.4987 58.0337ZM65.6983 24.8561V29.6407C60.1842 29.9181 55.6345 32.0582 52.1516 36.0167C47.26 41.5785 45.7844 49.304 45.3418 53.6944C43.213 53.0772 40.6845 52.52 37.6927 52.1046C37.0156 51.3762 36.3416 50.6897 35.6707 50.041C35.6738 49.9779 35.6784 49.9164 35.6784 49.8526C35.6784 42.9059 37.6105 37.3133 41.42 33.2303C48.6641 25.4662 60.8781 24.8009 65.6983 24.8561ZM41.0895 11.5554C42.2047 11.5554 43.3037 11.7461 44.3734 12.1087L44.3765 12.1095C47.924 13.3139 51.1379 16.4424 53.498 21.0402C48.3244 22.3361 42.7257 24.8001 38.4151 29.4136C34.3097 33.8049 31.9488 39.5117 31.3693 46.4088C29.5479 45.0956 27.745 44.0859 25.9682 43.3859V28.4299C26.0066 28.3259 26.0419 28.2202 26.0696 28.1091C28.5243 18.2081 34.5602 11.5554 41.0895 11.5554ZM14.2606 19.9863C14.2606 19.597 14.5326 19.2809 14.8677 19.2809H20.9098C21.2441 19.2809 21.5161 19.597 21.5161 19.9863V42.2729C20.7707 42.1965 20.0306 42.1767 19.2951 42.2146C17.5537 42.3052 15.8737 42.719 14.2606 43.4482V19.9863ZM9.92382 53.4012C12.8012 49.5869 16.0205 47.5628 19.4934 47.3822C23.9216 47.1521 29.0169 49.9487 34.272 55.4814C32.9125 58.5799 29.1314 65.5936 21.4131 69.6759C12.8949 74.1815 9.25826 80.2934 7.70739 84.6272C7.68126 84.7005 7.65744 84.7722 7.63131 84.8447C4.81699 77.6024 3.30457 62.1735 9.92382 53.4012Z" fill="#01457A"/>
<path fill-rule="evenodd" clip-rule="evenodd" d="M28.9221 104.637C27.9984 103.733 26.6281 103.885 25.8611 104.973C25.0957 106.062 25.2225 107.677 26.1462 108.579C32.0269 114.328 39.0689 118.46 46.5112 120.531C46.6795 120.578 46.8471 120.6 47.0131 120.6C47.9976 120.6 48.8906 119.805 49.1265 118.627C49.4024 117.251 48.6784 115.871 47.5103 115.546C40.7166 113.656 34.2895 109.882 28.9221 104.637Z" fill="#01457A"/>
<path fill-rule="evenodd" clip-rule="evenodd" d="M20.0077 97.6205C19.0501 98.6129 18.9417 100.338 19.7702 101.483C20.2244 102.135 20.8761 102.471 21.5332 102.471C22.0511 102.471 22.5714 102.262 22.9995 101.834C23.9717 100.865 24.1031 99.1339 23.2931 97.9697L23.2462 97.9043C22.417 96.7582 20.9637 96.6273 20.0077 97.6205Z" fill="#01457A"/>
</g>
<defs>
<clipPath id="clip0_448_151">
<rect width="83" height="134" fill="white"/>
</clipPath>
</defs>
</svg>
