<svg width="119" height="135" viewBox="0 0 119 135" fill="none" xmlns="http://www.w3.org/2000/svg">
<path fill-rule="evenodd" clip-rule="evenodd" d="M52.7114 132.211C52.7543 133.406 53.7622 134.355 54.9896 134.355H55.0593C56.3135 134.318 57.3048 133.294 57.2619 132.072C56.9725 125.227 55.6434 118.463 53.3173 111.994C57.4444 112.294 61.5875 112.294 65.7146 111.994C63.4045 118.468 62.0912 125.238 61.8125 132.088C61.7803 133.31 62.7772 134.323 64.0315 134.355C65.291 134.387 66.3308 133.417 66.363 132.195C66.6256 125.795 67.8584 119.465 70.0185 113.414C70.8332 111.099 69.5576 108.58 67.1831 107.792C66.615 107.604 66.02 107.529 65.4251 107.567C61.5124 107.845 57.5892 107.845 53.6765 107.567C51.1734 107.4 49.0026 109.249 48.8364 111.688C48.7935 112.278 48.874 112.867 49.0723 113.425C51.2162 119.481 52.4434 125.812 52.7114 132.211Z" fill="#01457A"/>
<path fill-rule="evenodd" clip-rule="evenodd" d="M117.914 9.21677C117.142 8.34847 115.899 8.35374 115.138 9.2274C111.718 13.4992 109.156 18.559 107.634 24.069C104.697 20.1563 101.341 16.6776 97.6429 13.7083C102.794 11.843 107.441 8.50917 111.134 4.02831C111.825 3.07961 111.713 1.66993 110.882 0.882032C110.051 0.10485 108.824 0.222865 108.127 1.15012C105.276 5.00388 100.328 8.18224 93.4516 10.6156C83.166 3.8193 71.4656 0.276409 59.5667 0.356807C47.6677 0.281769 35.9724 3.82457 25.6922 10.6263C18.8047 8.18751 13.8522 5.00924 10.9954 1.15012C10.2932 0.212145 9.05513 0.104838 8.22971 0.90346C7.40965 1.69672 7.30242 3.08497 7.99384 4.02831C11.6922 8.51453 16.3443 11.8484 21.5005 13.7137C17.8022 16.6884 14.4417 20.1776 11.4992 24.0956C9.97696 18.5803 7.41493 13.5046 3.98996 9.2274C3.2503 8.32694 2.00678 8.27873 1.21352 9.11487C0.420254 9.95637 0.372112 11.366 1.11178 12.2718C1.13858 12.3039 1.17069 12.3361 1.19749 12.3683C4.74573 16.9671 7.28073 22.4502 8.60462 28.3729C3.52345 36.4931 0.7418 46.1785 0.629243 56.1372C0.522045 73.7068 10.9311 91.1317 29.1815 103.942C37.9663 110.336 43.9318 120.675 45.5827 132.376C45.706 133.598 46.6815 134.477 47.7588 134.338C48.8362 134.198 49.6078 133.094 49.4845 131.867C49.4791 131.813 49.474 131.76 49.4632 131.706C47.6248 118.719 40.9997 107.244 31.2447 100.147C23.1781 94.4817 4.42421 78.8576 4.55821 56.1692C4.72972 27.8583 29.4066 4.82163 59.5667 4.82163C89.7642 4.82163 114.441 27.853 114.575 56.1692C114.682 77.9947 97.911 93.0881 87.8987 100.136C78.1491 107.233 71.5189 118.708 69.6698 131.69C69.5036 132.912 70.2434 134.048 71.31 134.236C71.4119 134.252 71.5136 134.263 71.61 134.263C72.5802 134.257 73.4056 133.453 73.5503 132.365C75.2172 120.665 81.1883 110.326 89.9731 103.931C100.677 96.3898 118.622 80.144 118.504 56.1532C118.407 46.1784 115.626 36.4824 110.534 28.3514C111.858 22.4395 114.393 16.9617 117.936 12.3683C118.697 11.4946 118.686 10.0797 117.914 9.21677Z" fill="#01457A"/>
<path fill-rule="evenodd" clip-rule="evenodd" d="M107.784 56.6356C107.784 31.5139 86.1515 11.0767 59.5451 11.0767C32.9386 11.0767 11.3062 31.5139 11.3062 56.6356C11.3062 81.7574 32.944 102.195 59.5451 102.195C86.1462 102.195 107.784 81.7574 107.784 56.6356ZM103.887 56.6356C103.871 62.1992 102.676 67.6717 100.403 72.5599C88.1721 73.7176 76.0268 69.3493 66.4648 60.3554C77.6937 53.1035 90.2786 49.2016 103.11 48.9979C103.625 51.5009 103.882 54.0629 103.887 56.6356ZM59.5451 15.6326C79.4249 15.6326 96.2979 27.7995 101.904 44.5062C88.2741 44.8814 74.9495 49.2872 63.1685 57.3217C50.2405 46.3393 39.5098 41.3707 17.5611 43.4718C23.4998 27.3064 40.0726 15.6326 59.5451 15.6326ZM15.2027 56.6356C15.2081 53.7896 15.5243 50.9542 16.1514 48.2046C38.7916 45.7015 48.6806 50.4397 61.7801 61.7759C71.31 71.7131 83.6109 77.2443 96.3835 77.3247C96.8658 77.3247 97.3589 77.2979 97.836 77.2819C90.1285 89.4381 75.8552 97.6387 59.5451 97.6387C35.0987 97.6387 15.2027 79.2436 15.2027 56.6356Z" fill="#01457A"/>
<path fill-rule="evenodd" clip-rule="evenodd" d="M32.7456 78.074C32.7456 79.5533 31.545 80.7539 30.0657 80.7539C28.5864 80.7539 27.3857 79.5533 27.3857 78.074C27.3857 76.5947 28.5864 75.394 30.0657 75.394C31.545 75.394 32.7456 76.5947 32.7456 78.074Z" fill="#01457A"/>
<path fill-rule="evenodd" clip-rule="evenodd" d="M21.6615 56.3339C21.6615 55.0207 20.5412 53.9541 19.1637 53.9541C17.7809 53.9541 16.666 55.0207 16.666 56.3339C16.725 62.8086 18.8849 69.1119 22.8405 74.3806C23.6337 75.4526 25.1884 75.7153 26.3193 74.9649C27.4502 74.2092 27.7235 72.7244 26.9356 71.647C23.5428 67.193 21.699 61.8385 21.6615 56.3339Z" fill="#01457A"/>
</svg>
